<?xml version="1.0" encoding="UTF-8" standalone="no"?>
<!DOCTYPE svg PUBLIC "-//W3C//DTD SVG 1.1//EN"
 "http://www.w3.org/Graphics/SVG/1.1/DTD/svg11.dtd">
<!-- Generated by graphviz version 2.26.3 (20100126.1600)
 -->
<!-- Title: models_diagram Pages: 1 -->
<svg width="3728pt" height="638pt"
 viewBox="0.00 0.00 3728.00 638.00" xmlns="http://www.w3.org/2000/svg" xmlns:xlink="http://www.w3.org/1999/xlink">
<g id="graph1" class="graph" transform="scale(1 1) rotate(0) translate(4 634)">
<title>models_diagram</title>
<polygon fill="white" stroke="white" points="-4,5 -4,-634 3725,-634 3725,5 -4,5"/>
<!-- _diagram_info -->
<g id="node1" class="node"><title>_diagram_info</title>
<text text-anchor="start" x="2325" y="-613.8" font-family="Times Roman,serif" font-size="13.00">Models diagram</text>
<text text-anchor="start" x="2325" y="-596.8" font-family="Times Roman,serif" font-size="13.00">Date: Jul 18 2012 &#45; 11:46</text>
<text text-anchor="start" x="2325" y="-579.8" font-family="Times Roman,serif" font-size="13.00">Migration version: 20120716212642</text>
<text text-anchor="start" x="2325" y="-562.8" font-family="Times Roman,serif" font-size="13.00">Generated by RailRoady 1.0.8</text>
<text text-anchor="start" x="2325" y="-545.8" font-family="Times Roman,serif" font-size="13.00">http://railroady.prestonlee.com</text>
</g>
<!-- PcRegion -->
<g id="node2" class="node"><title>PcRegion</title>
<ellipse fill="none" stroke="black" cx="2641" cy="-583" rx="55.8614" ry="18.3848"/>
<text text-anchor="middle" x="2641" y="-579.4" font-family="Times Roman,serif" font-size="14.00">PcRegion</text>
</g>
<!-- Job -->
<g id="node3" class="node"><title>Job</title>
<ellipse fill="none" stroke="black" cx="2779" cy="-111" rx="27" ry="18.3848"/>
<text text-anchor="middle" x="2779" y="-107.4" font-family="Times Roman,serif" font-size="14.00">Job</text>
</g>
<!-- User -->
<g id="node4" class="node"><title>User</title>
<ellipse fill="none" stroke="black" cx="1995" cy="-479" rx="33.9411" ry="18.3848"/>
<text text-anchor="middle" x="1995" y="-475.4" font-family="Times Roman,serif" font-size="14.00">User</text>
</g>
<!-- User&#45;&gt;User -->
<g id="edge48" class="edge"><title>User&#45;&gt;User</title>
<path fill="none" stroke="#f5ee96" d="M2038.54,-482.05C2043.66,-481.491 2047,-480.474 2047,-479 2047,-477.526 2043.66,-476.509 2038.54,-475.95"/>
<polygon fill="#f5ee96" stroke="#f5ee96" points="2038.5,-482.052 2028.28,-478.065 2033.5,-482.305 2028.51,-482.559 2028.51,-482.559 2028.51,-482.559 2033.5,-482.305 2028.74,-487.053 2038.5,-482.052 2038.5,-482.052"/>
<polygon fill="#f5ee96" stroke="#f5ee96" points="2038.5,-475.948 2028.74,-470.947 2033.5,-475.695 2028.51,-475.441 2028.51,-475.441 2028.51,-475.441 2033.5,-475.695 2028.28,-479.935 2038.5,-475.948 2038.5,-475.948"/>
<text text-anchor="middle" x="2073" y="-475.4" font-family="Times Roman,serif" font-size="14.00">sent_to</text>
</g>
<!-- User&#45;&gt;User -->
<g id="edge54" class="edge"><title>User&#45;&gt;User</title>
<path fill="none" stroke="#059f4f" d="M2029.97,-493.757C2061.28,-499.476 2099,-494.557 2099,-479 2099,-463.443 2061.28,-458.524 2029.97,-464.243"/>
<polygon fill="#059f4f" stroke="#059f4f" points="2029.84,-493.727 2021.07,-487.136 2024.96,-492.627 2020.08,-491.526 2020.08,-491.526 2020.08,-491.526 2024.96,-492.627 2019.09,-495.916 2029.84,-493.727 2029.84,-493.727"/>
<polygon fill="#059f4f" stroke="#059f4f" points="2029.84,-464.273 2019.09,-462.084 2024.96,-465.373 2020.08,-466.474 2020.08,-466.474 2020.08,-466.474 2024.96,-465.373 2021.07,-470.864 2029.84,-464.273 2029.84,-464.273"/>
<text text-anchor="middle" x="2147.5" y="-475.4" font-family="Times Roman,serif" font-size="14.00">received_from</text>
</g>
<!-- Contribution -->
<g id="node8" class="node"><title>Contribution</title>
<ellipse fill="none" stroke="black" cx="1914" cy="-111" rx="73.0388" ry="18.3848"/>
<text text-anchor="middle" x="1914" y="-107.4" font-family="Times Roman,serif" font-size="14.00">Contribution</text>
</g>
<!-- User&#45;&gt;Contribution -->
<g id="edge40" class="edge"><title>User&#45;&gt;Contribution</title>
<path fill="none" stroke="#74c299" d="M1990.96,-452.376C1987.41,-429.832 1981.91,-396.696 1976,-368 1958.78,-284.413 1933.87,-186.67 1921.52,-139.43"/>
<ellipse fill="none" stroke="#74c299" cx="1991.6" cy="-456.515" rx="4.00001" ry="4.00001"/>
<polygon fill="#74c299" stroke="#74c299" points="1921.48,-139.279 1923.3,-128.464 1920.21,-134.443 1918.94,-129.606 1918.94,-129.606 1918.94,-129.606 1920.21,-134.443 1914.59,-130.748 1921.48,-139.279 1921.48,-139.279"/>
</g>
<!-- Blog -->
<g id="node9" class="node"><title>Blog</title>
<ellipse fill="none" stroke="black" cx="1123" cy="-111" rx="33.234" ry="18.3848"/>
<text text-anchor="middle" x="1123" y="-107.4" font-family="Times Roman,serif" font-size="14.00">Blog</text>
</g>
<!-- User&#45;&gt;Blog -->
<g id="edge20" class="edge"><title>User&#45;&gt;Blog</title>
<path fill="none" stroke="#0872dc" d="M1956.53,-468.083C1911.97,-455.027 1836.65,-431.692 1774,-406 1603.34,-336.012 1565.71,-306.984 1402,-222 1340.93,-190.295 1331.01,-170.562 1266,-148 1221.27,-132.476 1205.99,-144.746 1161,-130 1159.36,-129.463 1157.71,-128.866 1156.05,-128.224"/>
<ellipse fill="none" stroke="#0872dc" cx="1960.65" cy="-469.281" rx="4.00001" ry="4.00001"/>
<polygon fill="#0872dc" stroke="#0872dc" points="1155.85,-128.136 1148.46,-120.033 1151.26,-126.15 1146.67,-124.163 1146.67,-124.163 1146.67,-124.163 1151.26,-126.15 1144.88,-128.293 1155.85,-128.136 1155.85,-128.136"/>
</g>
<!-- Staff -->
<g id="node10" class="node"><title>Staff</title>
<ellipse fill="none" stroke="black" cx="2850" cy="-295" rx="34.8574" ry="18.3848"/>
<text text-anchor="middle" x="2850" y="-291.4" font-family="Times Roman,serif" font-size="14.00">Staff</text>
</g>
<!-- User&#45;&gt;Staff -->
<g id="edge18" class="edge"><title>User&#45;&gt;Staff</title>
<path fill="none" stroke="#b88ac3" d="M2037.48,-477.424C2181.56,-471.982 2644.35,-453.677 2674,-442 2740.19,-415.936 2799.72,-354.646 2829.64,-319.998"/>
<ellipse fill="none" stroke="#b88ac3" cx="2033.25" cy="-477.583" rx="4" ry="4"/>
<polygon fill="#b88ac3" stroke="#b88ac3" points="2829.78,-319.833 2839.69,-315.124 2833.02,-316.022 2836.26,-312.211 2836.26,-312.211 2836.26,-312.211 2833.02,-316.022 2832.83,-309.298 2829.78,-319.833 2829.78,-319.833"/>
</g>
<!-- Role -->
<g id="node15" class="node"><title>Role</title>
<ellipse fill="none" stroke="black" cx="414" cy="-111" rx="32.0265" ry="18.3848"/>
<text text-anchor="middle" x="414" y="-107.4" font-family="Times Roman,serif" font-size="14.00">Role</text>
</g>
<!-- User&#45;&gt;Role -->
<g id="edge2" class="edge"><title>User&#45;&gt;Role</title>
<path fill="none" stroke="#8aab76" d="M1950.48,-478.515C1802.32,-476.662 1326.72,-468.728 1176,-442 920.403,-396.673 582.876,-365.661 422,-166 416.106,-158.685 413.538,-148.979 412.619,-139.758"/>
<polygon fill="#8aab76" stroke="#8aab76" points="1950.58,-478.516 1960.52,-483.138 1955.58,-478.577 1960.57,-478.638 1960.57,-478.638 1960.57,-478.638 1955.58,-478.577 1960.63,-474.138 1950.58,-478.516 1950.58,-478.516"/>
<polygon fill="#8aab76" stroke="#8aab76" points="412.616,-139.699 416.688,-129.517 412.404,-134.704 412.192,-129.708 412.192,-129.708 412.192,-129.708 412.404,-134.704 407.696,-129.899 412.616,-139.699 412.616,-139.699"/>
</g>
<!-- Website -->
<g id="node16" class="node"><title>Website</title>
<ellipse fill="none" stroke="black" cx="2208" cy="-111" rx="50.9117" ry="18.3848"/>
<text text-anchor="middle" x="2208" y="-107.4" font-family="Times Roman,serif" font-size="14.00">Website</text>
</g>
<!-- User&#45;&gt;Website -->
<g id="edge30" class="edge"><title>User&#45;&gt;Website</title>
<path fill="none" stroke="#7f8cd2" d="M2027.95,-463.047C2082.09,-436.096 2192.13,-378.176 2275,-314 2275.09,-313.931 2366.96,-222.104 2367,-222 2373.46,-206.397 2376.12,-198.217 2367,-184 2360.28,-173.519 2296.94,-146.516 2252.27,-128.456"/>
<ellipse fill="none" stroke="#7f8cd2" cx="2024.28" cy="-464.867" rx="4.00002" ry="4.00002"/>
<polygon fill="#7f8cd2" stroke="#7f8cd2" points="2252.04,-128.366 2244.44,-120.46 2247.4,-126.501 2242.76,-124.635 2242.76,-124.635 2242.76,-124.635 2247.4,-126.501 2241.09,-128.81 2252.04,-128.366 2252.04,-128.366"/>
</g>
<!-- Library -->
<g id="node17" class="node"><title>Library</title>
<ellipse fill="none" stroke="black" cx="893" cy="-111" rx="45.9619" ry="18.3848"/>
<text text-anchor="middle" x="893" y="-107.4" font-family="Times Roman,serif" font-size="14.00">Library</text>
</g>
<!-- User&#45;&gt;Library -->
<g id="edge24" class="edge"><title>User&#45;&gt;Library</title>
<path fill="none" stroke="#db8f46" d="M1952.68,-477.778C1804.44,-473.378 1313.91,-457.769 1245,-442 1080.66,-404.394 1034.82,-358.582 936,-222 917.849,-196.914 906.215,-163.17 899.688,-139.496"/>
<ellipse fill="none" stroke="#db8f46" cx="1956.72" cy="-477.897" rx="4" ry="4"/>
<polygon fill="#db8f46" stroke="#db8f46" points="899.657,-139.381 901.473,-128.567 898.389,-134.545 897.12,-129.708 897.12,-129.708 897.12,-129.708 898.389,-134.545 892.768,-130.85 899.657,-139.381 899.657,-139.381"/>
</g>
<!-- Moment -->
<g id="node18" class="node"><title>Moment</title>
<ellipse fill="none" stroke="black" cx="1916" cy="-387" rx="51.1176" ry="18.3848"/>
<text text-anchor="middle" x="1916" y="-383.4" font-family="Times Roman,serif" font-size="14.00">Moment</text>
</g>
<!-- User&#45;&gt;Moment -->
<g id="edge22" class="edge"><title>User&#45;&gt;Moment</title>
<path fill="none" stroke="#9ac08a" d="M1974.96,-455.661C1963.69,-442.544 1949.62,-426.148 1938.04,-412.669"/>
<ellipse fill="none" stroke="#9ac08a" cx="1977.9" cy="-459.091" rx="4.00002" ry="4.00002"/>
<polygon fill="#9ac08a" stroke="#9ac08a" points="1937.72,-412.295 1934.62,-401.776 1934.46,-408.501 1931.21,-404.708 1931.21,-404.708 1931.21,-404.708 1934.46,-408.501 1927.79,-407.64 1937.72,-412.295 1937.72,-412.295"/>
</g>
<!-- Ticket -->
<g id="node19" class="node"><title>Ticket</title>
<ellipse fill="none" stroke="black" cx="2567" cy="-387" rx="39.8075" ry="18.3848"/>
<text text-anchor="middle" x="2567" y="-383.4" font-family="Times Roman,serif" font-size="14.00">Ticket</text>
</g>
<!-- User&#45;&gt;Ticket -->
<g id="edge46" class="edge"><title>User&#45;&gt;Ticket</title>
<path fill="none" stroke="#6c72c2" d="M2039.28,-476.534C2111.95,-472.001 2253.06,-461.023 2299,-442 2310.99,-437.034 2310.08,-429.138 2322,-424 2356.17,-409.272 2456.04,-397.553 2517.21,-391.502"/>
<polygon fill="#6c72c2" stroke="#6c72c2" points="2039.05,-476.547 2028.8,-472.664 2034.06,-476.852 2029.07,-477.156 2029.07,-477.156 2029.07,-477.156 2034.06,-476.852 2029.35,-481.648 2039.05,-476.547 2039.05,-476.547"/>
<polygon fill="#6c72c2" stroke="#6c72c2" points="2517.46,-391.478 2527.85,-394.988 2522.44,-390.993 2527.41,-390.509 2527.41,-390.509 2527.41,-390.509 2522.44,-390.993 2526.98,-386.031 2517.46,-391.478 2517.46,-391.478"/>
<text text-anchor="middle" x="2352.5" y="-429.4" font-family="Times Roman,serif" font-size="14.00">outgoing</text>
</g>
<!-- User&#45;&gt;Ticket -->
<g id="edge52" class="edge"><title>User&#45;&gt;Ticket</title>
<path fill="none" stroke="#87fa85" d="M2039.41,-477.886C2127.58,-475.166 2321.55,-466.514 2383,-442 2395.06,-437.191 2394.28,-429.587 2406,-424 2441.27,-407.18 2484.61,-397.783 2517.43,-392.672"/>
<polygon fill="#87fa85" stroke="#87fa85" points="2039.19,-477.892 2029.06,-473.691 2034.19,-478.04 2029.19,-478.189 2029.19,-478.189 2029.19,-478.189 2034.19,-478.04 2029.33,-482.687 2039.19,-477.892 2039.19,-477.892"/>
<polygon fill="#87fa85" stroke="#87fa85" points="2517.8,-392.618 2528.35,-395.612 2522.75,-391.889 2527.69,-391.16 2527.69,-391.16 2527.69,-391.16 2522.75,-391.889 2527.04,-386.708 2517.8,-392.618 2517.8,-392.618"/>
<text text-anchor="middle" x="2437" y="-429.4" font-family="Times Roman,serif" font-size="14.00">incoming</text>
</g>
<!-- Document -->
<g id="node24" class="node"><title>Document</title>
<ellipse fill="none" stroke="black" cx="1218" cy="-203" rx="62.2254" ry="18.3848"/>
<text text-anchor="middle" x="1218" y="-199.4" font-family="Times Roman,serif" font-size="14.00">Document</text>
</g>
<!-- User&#45;&gt;Document -->
<g id="edge26" class="edge"><title>User&#45;&gt;Document</title>
<path fill="none" stroke="#950369" d="M1952.43,-478.704C1813,-477.454 1375.82,-471.223 1320,-442 1242.78,-401.579 1224.02,-286.056 1219.46,-231.802"/>
<ellipse fill="none" stroke="#950369" cx="1956.79" cy="-478.741" rx="4" ry="4"/>
<polygon fill="#950369" stroke="#950369" points="1219.44,-231.479 1223.2,-221.176 1219.07,-226.492 1218.71,-221.505 1218.71,-221.505 1218.71,-221.505 1219.07,-226.492 1214.22,-221.834 1219.44,-231.479 1219.44,-231.479"/>
</g>
<!-- Site -->
<g id="node26" class="node"><title>Site</title>
<ellipse fill="none" stroke="black" cx="2895" cy="-387" rx="31.1127" ry="18.3848"/>
<text text-anchor="middle" x="2895" y="-383.4" font-family="Times Roman,serif" font-size="14.00">Site</text>
</g>
<!-- User&#45;&gt;Site -->
<g id="edge28" class="edge"><title>User&#45;&gt;Site</title>
<path fill="none" stroke="#ef235b" d="M2037.54,-477.176C2202.3,-470.095 2789.77,-444.684 2799,-442 2823.73,-434.806 2848.88,-420.064 2867.24,-407.651"/>
<ellipse fill="none" stroke="#ef235b" cx="2033.1" cy="-477.367" rx="4" ry="4"/>
<polygon fill="#ef235b" stroke="#ef235b" points="2867.46,-407.497 2878.24,-405.483 2871.56,-404.643 2875.67,-401.789 2875.67,-401.789 2875.67,-401.789 2871.56,-404.643 2873.1,-398.094 2867.46,-407.497 2867.46,-407.497"/>
</g>
<!-- Stack -->
<g id="node27" class="node"><title>Stack</title>
<ellipse fill="none" stroke="black" cx="202" cy="-19" rx="38.8909" ry="18.3848"/>
<text text-anchor="middle" x="202" y="-15.4" font-family="Times Roman,serif" font-size="14.00">Stack</text>
</g>
<!-- User&#45;&gt;Stack -->
<g id="edge32" class="edge"><title>User&#45;&gt;Stack</title>
<path fill="none" stroke="#9ad723" d="M1952.49,-478.916C1678.13,-478.282 165.822,-473.37 74,-442 35.2225,-428.752 0,-427.978 0,-387 0,-387 0,-387 0,-111 0,-70.0218 37.2865,-74.2024 74,-56 99.7743,-43.2213 130.715,-34.1263 155.719,-28.1517"/>
<ellipse fill="none" stroke="#9ad723" cx="1956.61" cy="-478.925" rx="4" ry="4"/>
<polygon fill="#9ad723" stroke="#9ad723" points="155.941,-28.1006 166.696,-30.2439 160.814,-26.9795 165.687,-25.8584 165.687,-25.8584 165.687,-25.8584 160.814,-26.9795 164.678,-21.473 155.941,-28.1006 155.941,-28.1006"/>
<text text-anchor="middle" x="36.5" y="-245.4" font-family="Times Roman,serif" font-size="14.00">stacked_in</text>
</g>
<!-- User&#45;&gt;Stack -->
<g id="edge34" class="edge"><title>User&#45;&gt;Stack</title>
<path fill="none" stroke="#5afd00" d="M1952.46,-478.644C1688.96,-476.376 287.779,-463.346 200,-442 146.114,-428.896 88,-442.456 88,-387 88,-387 88,-387 88,-111 88,-72.5748 127.708,-47.4604 160.253,-33.3293"/>
<ellipse fill="none" stroke="#5afd00" cx="1956.64" cy="-478.68" rx="4" ry="4"/>
<polygon fill="#5afd00" stroke="#5afd00" points="160.391,-33.2727 171.351,-33.6241 165.014,-31.368 169.637,-29.4634 169.637,-29.4634 169.637,-29.4634 165.014,-31.368 167.923,-25.3026 160.391,-33.2727 160.391,-33.2727"/>
</g>
<!-- Photo -->
<g id="node28" class="node"><title>Photo</title>
<ellipse fill="none" stroke="black" cx="1318" cy="-295" rx="39.8075" ry="18.3848"/>
<text text-anchor="middle" x="1318" y="-291.4" font-family="Times Roman,serif" font-size="14.00">Photo</text>
</g>
<!-- User&#45;&gt;Photo -->
<g id="edge36" class="edge"><title>User&#45;&gt;Photo</title>
<path fill="none" stroke="#99316e" d="M1952.6,-477.983C1835.14,-474.907 1507.28,-464.5 1402,-442 1357.44,-432.477 1331.96,-443.454 1306,-406 1289.19,-381.744 1296.62,-347.079 1305.4,-322.965"/>
<ellipse fill="none" stroke="#99316e" cx="1956.69" cy="-478.089" rx="4" ry="4"/>
<polygon fill="#99316e" stroke="#99316e" points="1305.53,-322.646 1313.37,-314.982 1307.35,-317.992 1309.18,-313.338 1309.18,-313.338 1309.18,-313.338 1307.35,-317.992 1304.99,-311.693 1305.53,-322.646 1305.53,-322.646"/>
<text text-anchor="middle" x="1354" y="-383.4" font-family="Times Roman,serif" font-size="14.00">added_photos</text>
</g>
<!-- User&#45;&gt;Photo -->
<g id="edge38" class="edge"><title>User&#45;&gt;Photo</title>
<path fill="none" stroke="#2e411f" d="M1952.67,-477.832C1841.33,-474.475 1546.21,-463.62 1508,-442 1455.84,-412.486 1478.91,-366.635 1430,-332 1406.23,-315.171 1394.6,-323.274 1367,-314 1363.93,-312.968 1360.77,-311.858 1357.6,-310.709"/>
<ellipse fill="none" stroke="#2e411f" cx="1956.99" cy="-477.961" rx="4" ry="4"/>
<polygon fill="#2e411f" stroke="#2e411f" points="1357.53,-310.685 1349.73,-302.977 1352.85,-308.939 1348.16,-307.194 1348.16,-307.194 1348.16,-307.194 1352.85,-308.939 1346.59,-311.411 1357.53,-310.685 1357.53,-310.685"/>
</g>
<!-- TicketOwner -->
<g id="node29" class="node"><title>TicketOwner</title>
<ellipse fill="none" stroke="black" cx="2513" cy="-295" rx="73.0388" ry="18.3848"/>
<text text-anchor="middle" x="2513" y="-291.4" font-family="Times Roman,serif" font-size="14.00">TicketOwner</text>
</g>
<!-- User&#45;&gt;TicketOwner -->
<g id="edge44" class="edge"><title>User&#45;&gt;TicketOwner</title>
<path fill="none" stroke="#174276" d="M2036.98,-476.066C2099.24,-471.182 2212.63,-460.095 2249,-442 2313.19,-410.063 2303.16,-364.638 2367,-332 2381.13,-324.777 2414.67,-316.087 2446.05,-308.944"/>
<ellipse fill="none" stroke="#174276" cx="2032.9" cy="-476.379" rx="4" ry="4"/>
<polygon fill="#174276" stroke="#174276" points="2446.38,-308.871 2457.12,-311.074 2451.26,-307.777 2456.14,-306.683 2456.14,-306.683 2456.14,-306.683 2451.26,-307.777 2455.15,-302.292 2446.38,-308.871 2446.38,-308.871"/>
<text text-anchor="middle" x="2338" y="-383.4" font-family="Times Roman,serif" font-size="14.00">from</text>
</g>
<!-- User&#45;&gt;TicketOwner -->
<g id="edge50" class="edge"><title>User&#45;&gt;TicketOwner</title>
<path fill="none" stroke="#e45f74" d="M2037.07,-475.684C2103.99,-470.032 2231.44,-457.613 2274,-442 2287.89,-436.905 2288.66,-430.389 2302,-424 2324.82,-413.075 2333.43,-417.425 2356,-406 2403.91,-381.747 2453.61,-344.141 2483.92,-319.542"/>
<ellipse fill="none" stroke="#e45f74" cx="2032.82" cy="-476.039" rx="4" ry="4"/>
<polygon fill="#e45f74" stroke="#e45f74" points="2484.21,-319.309 2494.8,-316.452 2488.08,-316.14 2491.94,-312.971 2491.94,-312.971 2491.94,-312.971 2488.08,-316.14 2489.09,-309.491 2484.21,-319.309 2484.21,-319.309"/>
<text text-anchor="middle" x="2426.5" y="-383.4" font-family="Times Roman,serif" font-size="14.00">to</text>
</g>
<!-- Volunteer -->
<g id="node30" class="node"><title>Volunteer</title>
<ellipse fill="none" stroke="black" cx="2974" cy="-295" rx="58.8978" ry="18.3848"/>
<text text-anchor="middle" x="2974" y="-291.4" font-family="Times Roman,serif" font-size="14.00">Volunteer</text>
</g>
<!-- User&#45;&gt;Volunteer -->
<g id="edge16" class="edge"><title>User&#45;&gt;Volunteer</title>
<path fill="none" stroke="#dab73d" d="M2036.93,-477.312C2184.62,-471.302 2673.63,-450.834 2706,-442 2754.55,-428.749 2878.27,-354.439 2939.13,-316.822"/>
<ellipse fill="none" stroke="#dab73d" cx="2032.92" cy="-477.475" rx="4" ry="4"/>
<polygon fill="#dab73d" stroke="#dab73d" points="2939.13,-316.818 2950,-315.375 2943.38,-314.184 2947.63,-311.55 2947.63,-311.55 2947.63,-311.55 2943.38,-314.184 2945.26,-307.725 2939.13,-316.818 2939.13,-316.818"/>
</g>
<!-- TicketUpdate -->
<g id="node31" class="node"><title>TicketUpdate</title>
<ellipse fill="none" stroke="black" cx="2722" cy="-295" rx="75.1594" ry="18.3848"/>
<text text-anchor="middle" x="2722" y="-291.4" font-family="Times Roman,serif" font-size="14.00">TicketUpdate</text>
</g>
<!-- User&#45;&gt;TicketUpdate -->
<g id="edge42" class="edge"><title>User&#45;&gt;TicketUpdate</title>
<path fill="none" stroke="#6b9796" d="M2037.07,-477.187C2179.62,-470.973 2636.19,-450.453 2649,-442 2689.85,-415.052 2708.74,-358.106 2716.76,-323.537"/>
<ellipse fill="none" stroke="#6b9796" cx="2032.93" cy="-477.367" rx="4" ry="4"/>
<polygon fill="#6b9796" stroke="#6b9796" points="2716.79,-323.359 2723.3,-314.535 2717.85,-318.472 2718.91,-313.585 2718.91,-313.585 2718.91,-313.585 2717.85,-318.472 2714.51,-312.635 2716.79,-323.359 2716.79,-323.359"/>
</g>
<!-- ActsAsTaggableOn::Tagging -->
<g id="node39" class="node"><title>ActsAsTaggableOn::Tagging</title>
<ellipse fill="none" stroke="black" cx="795" cy="-19" rx="144.25" ry="18.3848"/>
<text text-anchor="middle" x="795" y="-15.4" font-family="Times Roman,serif" font-size="14.00">ActsAsTaggableOn::Tagging</text>
</g>
<!-- User&#45;&gt;ActsAsTaggableOn::Tagging -->
<g id="edge4" class="edge"><title>User&#45;&gt;ActsAsTaggableOn::Tagging</title>
<path fill="none" stroke="#2522c5" d="M1952.59,-478.771C1686.94,-477.257 262.236,-467.937 226,-442 86.4994,-342.146 88.7309,-158.901 226,-56 242.669,-43.5048 483.485,-31.4427 646.433,-24.6477"/>
<ellipse fill="none" stroke="#2522c5" cx="1956.83" cy="-478.795" rx="4" ry="4"/>
<polygon fill="#2522c5" stroke="#2522c5" points="646.571,-24.6421 656.749,-28.724 651.567,-24.435 656.563,-24.2279 656.563,-24.2279 656.563,-24.2279 651.567,-24.435 656.376,-19.7317 646.571,-24.6421 646.571,-24.6421"/>
<text text-anchor="middle" x="152.5" y="-245.4" font-family="Times Roman,serif" font-size="14.00">taggings</text>
</g>
<!-- User&#45;&gt;ActsAsTaggableOn::Tagging -->
<g id="edge8" class="edge"><title>User&#45;&gt;ActsAsTaggableOn::Tagging</title>
<path fill="none" stroke="#75ed0c" d="M1952.57,-478.634C1701.46,-476.393 418.103,-463.9 338,-442 289.822,-428.828 240,-436.946 240,-387 240,-387 240,-387 240,-111 240,-81.7847 250.811,-70.7996 276,-56 307.137,-37.7061 501.886,-27.8298 643.694,-22.993"/>
<ellipse fill="none" stroke="#75ed0c" cx="1956.73" cy="-478.671" rx="4" ry="4"/>
<polygon fill="#75ed0c" stroke="#75ed0c" points="643.816,-22.989 653.961,-27.1509 648.813,-22.8212 653.81,-22.6534 653.81,-22.6534 653.81,-22.6534 648.813,-22.8212 653.659,-18.156 643.816,-22.989 643.816,-22.989"/>
<text text-anchor="middle" x="284.5" y="-245.4" font-family="Times Roman,serif" font-size="14.00">tag_taggings</text>
</g>
<!-- User&#45;&gt;ActsAsTaggableOn::Tagging -->
<g id="edge12" class="edge"><title>User&#45;&gt;ActsAsTaggableOn::Tagging</title>
<path fill="none" stroke="#903845" d="M1952.31,-478.904C1694.08,-478.048 352,-469.626 352,-387 352,-387 352,-387 352,-249 352,-163.221 280.001,-101.046 353,-56 377.814,-40.688 527.984,-30.5429 646.492,-24.8107"/>
<ellipse fill="none" stroke="#903845" cx="1956.68" cy="-478.917" rx="4" ry="4"/>
<polygon fill="#903845" stroke="#903845" points="646.781,-24.797 656.984,-28.8156 651.775,-24.5589 656.77,-24.3207 656.77,-24.3207 656.77,-24.3207 651.775,-24.5589 656.555,-19.8258 646.781,-24.797 646.781,-24.797"/>
<text text-anchor="middle" x="408.5" y="-245.4" font-family="Times Roman,serif" font-size="14.00">owned_taggings</text>
</g>
<!-- ActsAsTaggableOn::Tag -->
<g id="node41" class="node"><title>ActsAsTaggableOn::Tag</title>
<ellipse fill="none" stroke="black" cx="2034" cy="-19" rx="123.243" ry="18.3848"/>
<text text-anchor="middle" x="2034" y="-15.4" font-family="Times Roman,serif" font-size="14.00">ActsAsTaggableOn::Tag</text>
</g>
<!-- User&#45;&gt;ActsAsTaggableOn::Tag -->
<g id="edge6" class="edge"><title>User&#45;&gt;ActsAsTaggableOn::Tag</title>
<path fill="none" stroke="#21c40e" d="M2033.88,-466.172C2053.8,-459.379 2078.36,-450.665 2100,-442 2136.2,-427.508 2146.22,-425.476 2180,-406 2240.69,-371.005 2256.82,-361.846 2308,-314 2327.37,-295.89 2375.03,-246.954 2384,-222 2409.52,-151.049 2407.49,-103.586 2349,-56 2333.87,-43.6903 2238.99,-33.6724 2157.28,-27.1803"/>
<polygon fill="#21c40e" stroke="#21c40e" points="2033.69,-466.236 2022.77,-465.178 2028.95,-467.839 2024.21,-469.441 2024.21,-469.441 2024.21,-469.441 2028.95,-467.839 2025.66,-473.704 2033.69,-466.236 2033.69,-466.236"/>
<polygon fill="#21c40e" stroke="#21c40e" points="2156.84,-27.1463 2147.22,-21.8805 2151.86,-26.7566 2146.87,-26.3668 2146.87,-26.3668 2146.87,-26.3668 2151.86,-26.7566 2146.52,-30.8531 2156.84,-27.1463 2156.84,-27.1463"/>
<text text-anchor="middle" x="2408.5" y="-245.4" font-family="Times Roman,serif" font-size="14.00">base_tags</text>
</g>
<!-- User&#45;&gt;ActsAsTaggableOn::Tag -->
<g id="edge10" class="edge"><title>User&#45;&gt;ActsAsTaggableOn::Tag</title>
<path fill="none" stroke="#c21d8a" d="M2036.67,-469.646C2065.19,-462.879 2103.72,-453.015 2137,-442 2177.51,-428.593 2188.36,-426.096 2226,-406 2238.91,-399.106 2437.15,-270.935 2444,-258 2488.55,-173.91 2457.56,-99.6426 2373,-56 2337.3,-37.5781 2244.2,-28.29 2164.58,-23.6286"/>
<polygon fill="#c21d8a" stroke="#c21d8a" points="2036.38,-469.714 2025.62,-467.614 2031.51,-470.855 2026.64,-471.996 2026.64,-471.996 2026.64,-471.996 2031.51,-470.855 2027.67,-476.377 2036.38,-469.714 2036.38,-469.714"/>
<polygon fill="#c21d8a" stroke="#c21d8a" points="2164.43,-23.6201 2154.7,-18.5627 2159.44,-23.3378 2154.45,-23.0556 2154.45,-23.0556 2154.45,-23.0556 2159.44,-23.3378 2154.19,-27.5484 2164.43,-23.6201 2164.43,-23.6201"/>
<text text-anchor="middle" x="2468" y="-245.4" font-family="Times Roman,serif" font-size="14.00">tags</text>
</g>
<!-- User&#45;&gt;ActsAsTaggableOn::Tag -->
<g id="edge14" class="edge"><title>User&#45;&gt;ActsAsTaggableOn::Tag</title>
<path fill="none" stroke="#d0b89f" d="M2039.48,-477.155C2180.04,-471.224 2606.03,-452.421 2616,-442 2675.31,-380.02 2619,-334.788 2619,-249 2619,-249 2619,-249 2619,-111 2619,-64.8197 2330.84,-38.1445 2159.01,-26.3429"/>
<polygon fill="#d0b89f" stroke="#d0b89f" points="2039.08,-477.172 2028.9,-473.096 2034.08,-477.382 2029.09,-477.592 2029.09,-477.592 2029.09,-477.592 2034.08,-477.382 2029.27,-482.089 2039.08,-477.172 2039.08,-477.172"/>
<polygon fill="#d0b89f" stroke="#d0b89f" points="2158.86,-26.3328 2149.18,-21.1656 2153.87,-25.9941 2148.88,-25.6553 2148.88,-25.6553 2148.88,-25.6553 2153.87,-25.9941 2148.57,-30.145 2158.86,-26.3328 2158.86,-26.3328"/>
<text text-anchor="middle" x="2662" y="-245.4" font-family="Times Roman,serif" font-size="14.00">owned_tags</text>
</g>
<!-- TicketCategory -->
<g id="node5" class="node"><title>TicketCategory</title>
<ellipse fill="none" stroke="black" cx="2534" cy="-479" rx="84.8528" ry="18.3848"/>
<text text-anchor="middle" x="2534" y="-475.4" font-family="Times Roman,serif" font-size="14.00">TicketCategory</text>
</g>
<!-- TicketCategory&#45;&gt;Ticket -->
<g id="edge56" class="edge"><title>TicketCategory&#45;&gt;Ticket</title>
<path fill="none" stroke="#522e06" d="M2601.58,-461.945C2610.42,-456.92 2618.36,-450.416 2624,-442 2633.37,-428.024 2620.76,-414.844 2605.05,-404.893"/>
<ellipse fill="none" stroke="#522e06" cx="2597.87" cy="-463.842" rx="4.00002" ry="4.00002"/>
<polygon fill="#522e06" stroke="#522e06" points="2604.77,-404.73 2598.37,-395.819 2600.44,-402.22 2596.12,-399.711 2596.12,-399.711 2596.12,-399.711 2600.44,-402.22 2593.86,-403.603 2604.77,-404.73 2604.77,-404.73"/>
</g>
<!-- Authorization -->
<g id="node6" class="node"><title>Authorization</title>
<ellipse fill="none" stroke="black" cx="3293" cy="-583" rx="79.196" ry="18.3848"/>
<text text-anchor="middle" x="3293" y="-579.4" font-family="Times Roman,serif" font-size="14.00">Authorization</text>
</g>
<!-- Priority -->
<g id="node7" class="node"><title>Priority</title>
<ellipse fill="none" stroke="black" cx="2685" cy="-479" rx="48.0833" ry="18.3848"/>
<text text-anchor="middle" x="2685" y="-475.4" font-family="Times Roman,serif" font-size="14.00">Priority</text>
</g>
<!-- Priority&#45;&gt;Ticket -->
<g id="edge58" class="edge"><title>Priority&#45;&gt;Ticket</title>
<path fill="none" stroke="#766698" d="M2668.43,-454.467C2660.65,-444.176 2650.73,-432.623 2640,-424 2630.14,-416.072 2618.3,-409.182 2607.06,-403.567"/>
<ellipse fill="none" stroke="#766698" cx="2670.86" cy="-457.778" rx="4.00002" ry="4.00002"/>
<polygon fill="#766698" stroke="#766698" points="2606.84,-403.461 2599.75,-395.094 2602.32,-401.308 2597.81,-399.156 2597.81,-399.156 2597.81,-399.156 2602.32,-401.308 2595.87,-403.217 2606.84,-403.461 2606.84,-403.461"/>
</g>
<!-- Blog&#45;&gt;ActsAsTaggableOn::Tagging -->
<g id="edge60" class="edge"><title>Blog&#45;&gt;ActsAsTaggableOn::Tagging</title>
<path fill="none" stroke="#cd45fe" d="M1089.27,-96.1605C1084.87,-94.5794 1080.37,-93.1364 1076,-92 1014.01,-75.861 992.134,-98.6279 933,-74 921.017,-69.0094 921.467,-62.0822 910,-56 897.551,-49.3969 883.714,-43.7111 870.076,-38.916"/>
<ellipse fill="none" stroke="#cd45fe" cx="1093.32" cy="-97.698" rx="4.00001" ry="4.00001"/>
<polygon fill="#cd45fe" stroke="#cd45fe" points="869.678,-38.7815 861.644,-31.3181 864.941,-37.1815 860.203,-35.5814 860.203,-35.5814 860.203,-35.5814 864.941,-37.1815 858.763,-39.8448 869.678,-38.7815 869.678,-38.7815"/>
<text text-anchor="middle" x="962.5" y="-61.4" font-family="Times Roman,serif" font-size="14.00">taggings</text>
</g>
<!-- Blog&#45;&gt;ActsAsTaggableOn::Tagging -->
<g id="edge64" class="edge"><title>Blog&#45;&gt;ActsAsTaggableOn::Tagging</title>
<path fill="none" stroke="#a2c152" d="M1088.75,-96.7062C1084.48,-95.0569 1080.16,-93.4491 1076,-92 1049.31,-82.692 1040.13,-86.9399 1015,-74 1003.46,-68.0578 1003.83,-61.3504 992,-56 968.838,-45.5215 942.853,-38.0103 917.543,-32.6263"/>
<ellipse fill="none" stroke="#a2c152" cx="1092.61" cy="-98.227" rx="4.00001" ry="4.00001"/>
<polygon fill="#a2c152" stroke="#a2c152" points="917.308,-32.5788 908.401,-26.1823 912.407,-31.5858 907.507,-30.5927 907.507,-30.5927 907.507,-30.5927 912.407,-31.5858 906.613,-35.0031 917.308,-32.5788 917.308,-32.5788"/>
<text text-anchor="middle" x="1059.5" y="-61.4" font-family="Times Roman,serif" font-size="14.00">tag_taggings</text>
</g>
<!-- Blog&#45;&gt;ActsAsTaggableOn::Tag -->
<g id="edge62" class="edge"><title>Blog&#45;&gt;ActsAsTaggableOn::Tag</title>
<path fill="none" stroke="#30f6ab" d="M1158.49,-95.9569C1162.35,-94.5326 1166.23,-93.1818 1170,-92 1204.36,-81.2172 1216.48,-89.4698 1249,-74 1260.72,-68.4237 1259.83,-60.5275 1272,-56 1329.18,-34.719 1698.83,-24.9042 1901.5,-21.0746"/>
<polygon fill="#30f6ab" stroke="#30f6ab" points="1158.41,-95.9899 1147.46,-95.3968 1153.74,-97.7921 1149.08,-99.5944 1149.08,-99.5944 1149.08,-99.5944 1153.74,-97.7921 1150.7,-103.792 1158.41,-95.9899 1158.41,-95.9899"/>
<polygon fill="#30f6ab" stroke="#30f6ab" points="1901.62,-21.0725 1911.71,-25.385 1906.62,-20.9791 1911.62,-20.8858 1911.62,-20.8858 1911.62,-20.8858 1906.62,-20.9791 1911.54,-16.3865 1901.62,-21.0725 1901.62,-21.0725"/>
<text text-anchor="middle" x="1306.5" y="-61.4" font-family="Times Roman,serif" font-size="14.00">base_tags</text>
</g>
<!-- Blog&#45;&gt;ActsAsTaggableOn::Tag -->
<g id="edge66" class="edge"><title>Blog&#45;&gt;ActsAsTaggableOn::Tag</title>
<path fill="none" stroke="#a20844" d="M1158.36,-95.495C1162.24,-94.1593 1166.17,-92.9555 1170,-92 1244.15,-73.4992 1266.62,-91.5577 1341,-74 1363.17,-68.7653 1366.71,-60.7058 1389,-56 1483.37,-36.0802 1742.02,-26.2262 1901.65,-21.9036"/>
<polygon fill="#a20844" stroke="#a20844" points="1158.29,-95.5234 1147.34,-94.805 1153.6,-97.2721 1148.92,-99.0209 1148.92,-99.0209 1148.92,-99.0209 1153.6,-97.2721 1150.49,-103.237 1158.29,-95.5234 1158.29,-95.5234"/>
<polygon fill="#a20844" stroke="#a20844" points="1902.02,-21.8937 1912.14,-26.1252 1907.02,-21.7603 1912.02,-21.6268 1912.02,-21.6268 1912.02,-21.6268 1907.02,-21.7603 1911.9,-17.1284 1902.02,-21.8937 1902.02,-21.8937"/>
<text text-anchor="middle" x="1404" y="-61.4" font-family="Times Roman,serif" font-size="14.00">tags</text>
</g>
<!-- Staff&#45;&gt;Job -->
<g id="edge68" class="edge"><title>Staff&#45;&gt;Job</title>
<path fill="none" stroke="#ae0a27" d="M2826.6,-273.055C2813.83,-259.61 2799.02,-241.314 2791,-222 2780.09,-195.73 2777.74,-163.101 2777.73,-140.036"/>
<ellipse fill="none" stroke="#ae0a27" cx="2829.5" cy="-276.017" rx="4.00002" ry="4.00002"/>
<polygon fill="#ae0a27" stroke="#ae0a27" points="2777.73,-139.86 2782.37,-129.925 2777.8,-134.861 2777.87,-129.861 2777.87,-129.861 2777.87,-129.861 2777.8,-134.861 2773.37,-129.798 2777.73,-139.86 2777.73,-139.86"/>
</g>
<!-- Position -->
<g id="node12" class="node"><title>Position</title>
<ellipse fill="none" stroke="black" cx="2850" cy="-203" rx="50.2046" ry="18.3848"/>
<text text-anchor="middle" x="2850" y="-199.4" font-family="Times Roman,serif" font-size="14.00">Position</text>
</g>
<!-- Staff&#45;&gt;Position -->
<g id="edge70" class="edge"><title>Staff&#45;&gt;Position</title>
<path fill="none" stroke="#c11617" d="M2850,-266.342C2850,-255.283 2850,-242.657 2850,-231.604"/>
<polygon fill="#c11617" stroke="#c11617" points="2850,-266.382 2845.5,-276.382 2850,-271.382 2850,-276.382 2850,-276.382 2850,-276.382 2850,-271.382 2854.5,-276.382 2850,-266.382 2850,-266.382"/>
<polygon fill="#c11617" stroke="#c11617" points="2850,-231.59 2854.5,-221.59 2850,-226.59 2850,-221.59 2850,-221.59 2850,-221.59 2850,-226.59 2845.5,-221.59 2850,-231.59 2850,-231.59"/>
</g>
<!-- TicketCode -->
<g id="node11" class="node"><title>TicketCode</title>
<ellipse fill="none" stroke="black" cx="2816" cy="-479" rx="65.0538" ry="18.3848"/>
<text text-anchor="middle" x="2816" y="-475.4" font-family="Times Roman,serif" font-size="14.00">TicketCode</text>
</g>
<!-- TicketCode&#45;&gt;Ticket -->
<g id="edge76" class="edge"><title>TicketCode&#45;&gt;Ticket</title>
<path fill="none" stroke="#a36d1b" d="M2766.62,-460.756C2720.09,-443.562 2651.19,-418.106 2607.72,-402.044"/>
<polygon fill="#a36d1b" stroke="#a36d1b" points="2766.89,-460.855 2774.71,-468.542 2771.58,-462.588 2776.27,-464.321 2776.27,-464.321 2776.27,-464.321 2771.58,-462.588 2777.83,-460.099 2766.89,-460.855 2766.89,-460.855"/>
<polygon fill="#a36d1b" stroke="#a36d1b" points="2607.69,-402.035 2599.87,-394.348 2603,-400.302 2598.31,-398.569 2598.31,-398.569 2598.31,-398.569 2603,-400.302 2596.75,-402.79 2607.69,-402.035 2607.69,-402.035"/>
</g>
<!-- TicketCode&#45;&gt;TicketOwner -->
<g id="edge74" class="edge"><title>TicketCode&#45;&gt;TicketOwner</title>
<path fill="none" stroke="#829a8f" d="M2781.25,-457.897C2723.69,-422.943 2609.07,-353.337 2550.03,-317.49"/>
<ellipse fill="none" stroke="#829a8f" cx="2784.89" cy="-460.107" rx="4.00002" ry="4.00002"/>
<polygon fill="#829a8f" stroke="#829a8f" points="2549.95,-317.436 2543.73,-308.399 2545.67,-314.841 2541.4,-312.245 2541.4,-312.245 2541.4,-312.245 2545.67,-314.841 2539.06,-316.092 2549.95,-317.436 2549.95,-317.436"/>
</g>
<!-- TicketCode&#45;&gt;TicketUpdate -->
<g id="edge72" class="edge"><title>TicketCode&#45;&gt;TicketUpdate</title>
<path fill="none" stroke="#e37f98" d="M2824.83,-452.711C2826.64,-443.453 2827.16,-433.094 2824,-424 2809.47,-382.208 2775.16,-343.742 2750.33,-319.889"/>
<ellipse fill="none" stroke="#e37f98" cx="2823.9" cy="-456.613" rx="4.00001" ry="4.00001"/>
<polygon fill="#e37f98" stroke="#e37f98" points="2750.25,-319.816 2746.05,-309.689 2746.61,-316.392 2742.97,-312.969 2742.97,-312.969 2742.97,-312.969 2746.61,-316.392 2739.88,-316.248 2750.25,-319.816 2750.25,-319.816"/>
</g>
<!-- Position&#45;&gt;Job -->
<g id="edge78" class="edge"><title>Position&#45;&gt;Job</title>
<path fill="none" stroke="#62a4e7" d="M2830.9,-178.245C2820.73,-165.075 2808.27,-148.927 2798.11,-135.756"/>
<ellipse fill="none" stroke="#62a4e7" cx="2833.53" cy="-181.657" rx="4.00002" ry="4.00002"/>
<polygon fill="#62a4e7" stroke="#62a4e7" points="2797.91,-135.509 2795.37,-124.843 2794.86,-131.551 2791.8,-127.592 2791.8,-127.592 2791.8,-127.592 2794.86,-131.551 2788.24,-130.342 2797.91,-135.509 2797.91,-135.509"/>
</g>
<!-- CaseStudy -->
<g id="node13" class="node"><title>CaseStudy</title>
<ellipse fill="none" stroke="black" cx="1008" cy="-203" rx="63.1385" ry="18.3848"/>
<text text-anchor="middle" x="1008" y="-199.4" font-family="Times Roman,serif" font-size="14.00">CaseStudy</text>
</g>
<!-- CaseStudy&#45;&gt;User -->
<g id="edge90" class="edge"><title>CaseStudy&#45;&gt;User</title>
<path fill="none" stroke="#4081b5" d="M1027.3,-229.358C1068.46,-282.894 1170.93,-402.618 1291,-442 1353.4,-462.468 1806.01,-474.623 1950.67,-478.017"/>
<polygon fill="#4081b5" stroke="#4081b5" points="1027.28,-229.322 1024.82,-218.636 1024.26,-225.339 1021.23,-221.356 1021.23,-221.356 1021.23,-221.356 1024.26,-225.339 1017.65,-224.077 1027.28,-229.322 1027.28,-229.322"/>
<polygon fill="#4081b5" stroke="#4081b5" points="1950.95,-478.023 1960.84,-482.754 1955.95,-478.139 1960.94,-478.255 1960.94,-478.255 1960.94,-478.255 1955.95,-478.139 1961.05,-473.757 1950.95,-478.023 1950.95,-478.023"/>
<text text-anchor="middle" x="1180.5" y="-337.4" font-family="Times Roman,serif" font-size="14.00">contributors</text>
</g>
<!-- CaseStudy&#45;&gt;Contribution -->
<g id="edge88" class="edge"><title>CaseStudy&#45;&gt;Contribution</title>
<path fill="none" stroke="#bb25f2" d="M1072.52,-193.407C1095.94,-190.13 1122.63,-186.631 1147,-184 1448.42,-151.457 1527.1,-174.445 1827,-130 1834.74,-128.853 1842.82,-127.416 1850.81,-125.849"/>
<ellipse fill="none" stroke="#bb25f2" cx="1068.34" cy="-193.996" rx="4.00001" ry="4.00001"/>
<polygon fill="#bb25f2" stroke="#bb25f2" points="1851.04,-125.803 1861.74,-128.217 1855.94,-124.805 1860.84,-123.808 1860.84,-123.808 1860.84,-123.808 1855.94,-124.805 1859.94,-119.398 1851.04,-125.803 1851.04,-125.803"/>
</g>
<!-- CaseStudy&#45;&gt;Library -->
<g id="edge94" class="edge"><title>CaseStudy&#45;&gt;Library</title>
<path fill="none" stroke="#37a3ad" d="M978.159,-179.128C960.875,-165.3 939.212,-147.97 922.062,-134.249"/>
<polygon fill="#37a3ad" stroke="#37a3ad" points="978.29,-179.232 983.288,-188.993 982.194,-182.355 986.099,-185.479 986.099,-185.479 986.099,-185.479 982.194,-182.355 988.91,-181.965 978.29,-179.232 978.29,-179.232"/>
<polygon fill="#37a3ad" stroke="#37a3ad" points="921.852,-134.082 916.855,-124.321 917.948,-130.958 914.044,-127.835 914.044,-127.835 914.044,-127.835 917.948,-130.958 911.232,-131.349 921.852,-134.082 921.852,-134.082"/>
</g>
<!-- CaseStudy&#45;&gt;Stack -->
<g id="edge92" class="edge"><title>CaseStudy&#45;&gt;Stack</title>
<path fill="none" stroke="#5835d1" d="M936.491,-202.088C803.36,-199.787 522.53,-191.928 429,-166 386.092,-154.105 286.175,-101.301 251,-74 240.187,-65.6075 229.851,-54.6187 221.482,-44.6715"/>
<ellipse fill="none" stroke="#5835d1" cx="940.656" cy="-202.158" rx="4" ry="4"/>
<polygon fill="#5835d1" stroke="#5835d1" points="221.259,-44.3977 218.439,-33.8008 218.104,-40.5193 214.948,-36.6408 214.948,-36.6408 214.948,-36.6408 218.104,-40.5193 211.458,-39.4808 221.259,-44.3977 221.259,-44.3977"/>
</g>
<!-- CaseStudy&#45;&gt;ActsAsTaggableOn::Tagging -->
<g id="edge80" class="edge"><title>CaseStudy&#45;&gt;ActsAsTaggableOn::Tagging</title>
<path fill="none" stroke="#f2e479" d="M936.982,-200.731C835.178,-196.793 653.179,-187.014 591,-166 562.614,-156.407 548.463,-156.241 534,-130 501.006,-70.1388 580.533,-42.5591 660.256,-29.853"/>
<ellipse fill="none" stroke="#f2e479" cx="941.076" cy="-200.886" rx="4" ry="4"/>
<polygon fill="#f2e479" stroke="#f2e479" points="660.59,-29.8024 671.152,-32.7521 665.534,-29.0527 670.477,-28.303 670.477,-28.303 670.477,-28.303 665.534,-29.0527 669.803,-23.8539 660.59,-29.8024 660.59,-29.8024"/>
<text text-anchor="middle" x="563.5" y="-107.4" font-family="Times Roman,serif" font-size="14.00">taggings</text>
</g>
<!-- CaseStudy&#45;&gt;ActsAsTaggableOn::Tagging -->
<g id="edge84" class="edge"><title>CaseStudy&#45;&gt;ActsAsTaggableOn::Tagging</title>
<path fill="none" stroke="#48a388" d="M937.036,-200.625C837.173,-195.519 663.47,-179.56 629,-130 608.004,-99.8126 634.191,-74.4463 666,-56 678.691,-48.6402 692.944,-42.6624 707.222,-37.8321"/>
<ellipse fill="none" stroke="#48a388" cx="941.283" cy="-200.834" rx="4" ry="4"/>
<polygon fill="#48a388" stroke="#48a388" points="707.569,-37.7209 718.466,-38.9537 712.331,-36.1947 717.092,-34.6685 717.092,-34.6685 717.092,-34.6685 712.331,-36.1947 715.719,-30.3832 707.569,-37.7209 707.569,-37.7209"/>
<text text-anchor="middle" x="673.5" y="-107.4" font-family="Times Roman,serif" font-size="14.00">tag_taggings</text>
</g>
<!-- CaseStudy&#45;&gt;ActsAsTaggableOn::Tag -->
<g id="edge82" class="edge"><title>CaseStudy&#45;&gt;ActsAsTaggableOn::Tag</title>
<path fill="none" stroke="#7a3b63" d="M1057.47,-184.662C1089.47,-171.695 1131.3,-152.627 1165,-130 1185.63,-116.15 1183.27,-102.037 1206,-92 1249.45,-72.8097 1372.1,-81.5645 1419,-74 1452.84,-68.5411 1460.12,-61.1898 1494,-56 1632.15,-34.8407 1792.05,-25.7788 1901.79,-21.8996"/>
<polygon fill="#7a3b63" stroke="#7a3b63" points="1057.16,-184.785 1046.2,-184.307 1052.51,-186.636 1047.87,-188.488 1047.87,-188.488 1047.87,-188.488 1052.51,-186.636 1049.53,-192.668 1057.16,-184.785 1057.16,-184.785"/>
<polygon fill="#7a3b63" stroke="#7a3b63" points="1901.93,-21.8951 1912.08,-26.0486 1906.92,-21.7232 1911.92,-21.5513 1911.92,-21.5513 1911.92,-21.5513 1906.92,-21.7232 1911.77,-17.0539 1901.93,-21.8951 1901.93,-21.8951"/>
<text text-anchor="middle" x="1240.5" y="-107.4" font-family="Times Roman,serif" font-size="14.00">base_tags</text>
</g>
<!-- CaseStudy&#45;&gt;ActsAsTaggableOn::Tag -->
<g id="edge86" class="edge"><title>CaseStudy&#45;&gt;ActsAsTaggableOn::Tag</title>
<path fill="none" stroke="#91c8e1" d="M1071.11,-190.898C1126.28,-179.12 1207.84,-158.776 1275,-130 1305.06,-117.121 1307.16,-102.863 1338,-92 1394.26,-72.1842 1412.48,-85.5495 1471,-74 1502.09,-67.8636 1508.74,-61.2047 1540,-56 1661.8,-35.7224 1802.36,-26.5518 1902.32,-22.4078"/>
<polygon fill="#91c8e1" stroke="#91c8e1" points="1070.91,-190.94 1060.2,-188.594 1066.02,-191.968 1061.13,-192.997 1061.13,-192.997 1061.13,-192.997 1066.02,-191.968 1062.05,-197.401 1070.91,-190.94 1070.91,-190.94"/>
<polygon fill="#91c8e1" stroke="#91c8e1" points="1902.48,-22.4013 1912.66,-26.4947 1907.48,-22.1999 1912.48,-21.9984 1912.48,-21.9984 1912.48,-21.9984 1907.48,-22.1999 1912.29,-17.502 1902.48,-22.4013 1902.48,-22.4013"/>
<text text-anchor="middle" x="1353" y="-107.4" font-family="Times Roman,serif" font-size="14.00">tags</text>
</g>
<!-- Import -->
<g id="node14" class="node"><title>Import</title>
<ellipse fill="none" stroke="black" cx="2883" cy="-111" rx="43.8406" ry="18.3848"/>
<text text-anchor="middle" x="2883" y="-107.4" font-family="Times Roman,serif" font-size="14.00">Import</text>
</g>
<!-- Website&#45;&gt;ActsAsTaggableOn::Tagging -->
<g id="edge96" class="edge"><title>Website&#45;&gt;ActsAsTaggableOn::Tagging</title>
<path fill="none" stroke="#0e28fd" d="M2152.22,-102.883C2126.33,-99.2705 2095.13,-95.1349 2067,-92 1886.08,-71.8396 1840.65,-67.8973 1659,-56 1409.29,-39.6447 1118.48,-28.902 945.947,-23.3965"/>
<ellipse fill="none" stroke="#0e28fd" cx="2156.46" cy="-103.479" rx="4.00001" ry="4.00001"/>
<polygon fill="#0e28fd" stroke="#0e28fd" points="945.773,-23.3911 935.921,-18.576 940.776,-23.2324 935.778,-23.0737 935.778,-23.0737 935.778,-23.0737 940.776,-23.2324 935.635,-27.5715 945.773,-23.3911 945.773,-23.3911"/>
<text text-anchor="middle" x="1920.5" y="-61.4" font-family="Times Roman,serif" font-size="14.00">taggings</text>
</g>
<!-- Website&#45;&gt;ActsAsTaggableOn::Tagging -->
<g id="edge100" class="edge"><title>Website&#45;&gt;ActsAsTaggableOn::Tagging</title>
<path fill="none" stroke="#1c7cdb" d="M2152.89,-102.3C2126.9,-98.5239 2095.43,-94.42 2067,-92 2011.5,-87.2749 1618.12,-93.6654 1566,-74 1554.18,-69.5398 1555.79,-60.5395 1544,-56 1490.12,-35.2546 1151.31,-25.4942 948.292,-21.4558"/>
<ellipse fill="none" stroke="#1c7cdb" cx="2157.17" cy="-102.929" rx="4.00001" ry="4.00001"/>
<polygon fill="#1c7cdb" stroke="#1c7cdb" points="948.126,-21.4526 938.216,-16.757 943.127,-21.3544 938.128,-21.2561 938.128,-21.2561 938.128,-21.2561 943.127,-21.3544 938.039,-25.7552 948.126,-21.4526 948.126,-21.4526"/>
<text text-anchor="middle" x="1610.5" y="-61.4" font-family="Times Roman,serif" font-size="14.00">tag_taggings</text>
</g>
<!-- Website&#45;&gt;ActsAsTaggableOn::Tag -->
<g id="edge98" class="edge"><title>Website&#45;&gt;ActsAsTaggableOn::Tag</title>
<path fill="none" stroke="#23232e" d="M2184.53,-85.7418C2172.66,-73.4306 2159.26,-60.3524 2152,-56 2139.66,-48.5994 2125.69,-42.5376 2111.79,-37.621"/>
<polygon fill="#23232e" stroke="#23232e" points="2184.76,-85.9822 2188.4,-96.3269 2188.21,-89.6027 2191.66,-93.2233 2191.66,-93.2233 2191.66,-93.2233 2188.21,-89.6027 2194.91,-90.1196 2184.76,-85.9822 2184.76,-85.9822"/>
<polygon fill="#23232e" stroke="#23232e" points="2111.68,-37.5839 2103.63,-30.1322 2106.94,-35.9908 2102.2,-34.3977 2102.2,-34.3977 2102.2,-34.3977 2106.94,-35.9908 2100.77,-38.6631 2111.68,-37.5839 2111.68,-37.5839"/>
<text text-anchor="middle" x="2207.5" y="-61.4" font-family="Times Roman,serif" font-size="14.00">base_tags</text>
</g>
<!-- Website&#45;&gt;ActsAsTaggableOn::Tag -->
<g id="edge102" class="edge"><title>Website&#45;&gt;ActsAsTaggableOn::Tag</title>
<path fill="none" stroke="#2c22e5" d="M2237.85,-86.8944C2246.64,-76.9498 2252.01,-65.5436 2244,-56 2231.93,-41.6178 2196.46,-32.824 2158.02,-27.448"/>
<polygon fill="#2c22e5" stroke="#2c22e5" points="2237.67,-87.0696 2227.43,-90.9854 2234.15,-90.6143 2230.62,-94.1591 2230.62,-94.1591 2230.62,-94.1591 2234.15,-90.6143 2233.81,-97.3328 2237.67,-87.0696 2237.67,-87.0696"/>
<polygon fill="#2c22e5" stroke="#2c22e5" points="2157.57,-27.3895 2148.24,-21.6254 2152.61,-26.7383 2147.66,-26.0871 2147.66,-26.0871 2147.66,-26.0871 2152.61,-26.7383 2147.07,-30.5487 2157.57,-27.3895 2157.57,-27.3895"/>
<text text-anchor="middle" x="2263" y="-61.4" font-family="Times Roman,serif" font-size="14.00">tags</text>
</g>
<!-- Library&#45;&gt;Stack -->
<g id="edge112" class="edge"><title>Library&#45;&gt;Stack</title>
<path fill="none" stroke="#aa6649" d="M850.839,-96.1192C844.91,-94.4769 838.845,-93.0292 833,-92 645.057,-58.9048 592.579,-103.25 404,-74 347.261,-65.1992 283.627,-46.3163 243.213,-33.1456"/>
<ellipse fill="none" stroke="#aa6649" cx="854.969" cy="-97.3315" rx="4.00001" ry="4.00001"/>
<polygon fill="#aa6649" stroke="#aa6649" points="243.205,-33.1429 235.116,-25.7392 238.456,-31.578 233.707,-30.0131 233.707,-30.0131 233.707,-30.0131 238.456,-31.578 232.299,-34.2871 243.205,-33.1429 243.205,-33.1429"/>
</g>
<!-- Library&#45;&gt;ActsAsTaggableOn::Tagging -->
<g id="edge104" class="edge"><title>Library&#45;&gt;ActsAsTaggableOn::Tagging</title>
<path fill="none" stroke="#99322e" d="M850.27,-96.5734C844.504,-94.8901 838.634,-93.3097 833,-92 806.949,-85.9444 731.44,-94.2767 714,-74 702.721,-60.8861 713.207,-49.5073 729.938,-40.5563"/>
<ellipse fill="none" stroke="#99322e" cx="854.209" cy="-97.7615" rx="4.00001" ry="4.00001"/>
<polygon fill="#99322e" stroke="#99322e" points="730.168,-40.4457 741.13,-40.1535 734.671,-38.2731 739.174,-36.1005 739.174,-36.1005 739.174,-36.1005 734.671,-38.2731 737.219,-32.0475 730.168,-40.4457 730.168,-40.4457"/>
<text text-anchor="middle" x="743.5" y="-61.4" font-family="Times Roman,serif" font-size="14.00">taggings</text>
</g>
<!-- Library&#45;&gt;ActsAsTaggableOn::Tagging -->
<g id="edge108" class="edge"><title>Library&#45;&gt;ActsAsTaggableOn::Tagging</title>
<path fill="none" stroke="#12eb5e" d="M849.285,-96.829C825.176,-88.5808 799.423,-78.8745 796,-74 790.753,-66.5291 789.285,-56.9686 789.506,-47.9208"/>
<ellipse fill="none" stroke="#12eb5e" cx="853.235" cy="-98.1657" rx="4.00001" ry="4.00001"/>
<polygon fill="#12eb5e" stroke="#12eb5e" points="789.53,-47.6516 794.897,-38.0893 789.972,-42.6713 790.415,-37.6909 790.415,-37.6909 790.415,-37.6909 789.972,-42.6713 785.933,-37.2925 789.53,-47.6516 789.53,-47.6516"/>
<text text-anchor="middle" x="840.5" y="-61.4" font-family="Times Roman,serif" font-size="14.00">tag_taggings</text>
</g>
<!-- Library&#45;&gt;ActsAsTaggableOn::Tag -->
<g id="edge106" class="edge"><title>Library&#45;&gt;ActsAsTaggableOn::Tag</title>
<path fill="none" stroke="#4a1364" d="M944.532,-100.673C959.5,-97.7643 975.885,-94.6683 991,-92 1041.08,-83.159 1057.38,-94.3183 1104,-74 1115.9,-68.8139 1114.82,-60.4803 1127,-56 1197.5,-30.0715 1666.11,-22.2412 1900.7,-19.9333"/>
<polygon fill="#4a1364" stroke="#4a1364" points="944.243,-100.729 933.565,-98.2325 939.335,-101.689 934.428,-102.649 934.428,-102.649 934.428,-102.649 939.335,-101.689 935.292,-107.065 944.243,-100.729 944.243,-100.729"/>
<polygon fill="#4a1364" stroke="#4a1364" points="1901.01,-19.9304 1911.05,-24.3338 1906.01,-19.8822 1911.01,-19.834 1911.01,-19.834 1911.01,-19.834 1906.01,-19.8822 1910.96,-15.3342 1901.01,-19.9304 1901.01,-19.9304"/>
<text text-anchor="middle" x="1161.5" y="-61.4" font-family="Times Roman,serif" font-size="14.00">base_tags</text>
</g>
<!-- Library&#45;&gt;ActsAsTaggableOn::Tag -->
<g id="edge110" class="edge"><title>Library&#45;&gt;ActsAsTaggableOn::Tag</title>
<path fill="none" stroke="#53b134" d="M944.012,-100.069C959.088,-97.1203 975.661,-94.1544 991,-92 1036.29,-85.6394 1154.3,-92.7715 1196,-74 1206.61,-69.2252 1204.29,-60.5487 1215,-56 1276.21,-29.9927 1684.62,-22.2386 1900.61,-19.9474"/>
<polygon fill="#53b134" stroke="#53b134" points="943.653,-100.14 932.966,-97.6836 938.75,-101.118 933.847,-102.097 933.847,-102.097 933.847,-102.097 938.75,-101.118 934.727,-106.51 943.653,-100.14 943.653,-100.14"/>
<polygon fill="#53b134" stroke="#53b134" points="1900.75,-19.9461 1910.79,-24.3421 1905.75,-19.8942 1910.75,-19.8424 1910.75,-19.8424 1910.75,-19.8424 1905.75,-19.8942 1910.7,-15.3426 1900.75,-19.9461 1900.75,-19.9461"/>
<text text-anchor="middle" x="1230" y="-61.4" font-family="Times Roman,serif" font-size="14.00">tags</text>
</g>
<!-- Moment&#45;&gt;Photo -->
<g id="edge122" class="edge"><title>Moment&#45;&gt;Photo</title>
<path fill="none" stroke="#7b66ea" d="M1858.64,-380.691C1725.85,-365.297 1405.5,-326.181 1358,-314 1356.33,-313.571 1354.64,-313.103 1352.94,-312.602"/>
<ellipse fill="none" stroke="#7b66ea" cx="1862.76" cy="-381.167" rx="4.00001" ry="4.00001"/>
<polygon fill="#7b66ea" stroke="#7b66ea" points="1352.79,-312.552 1344.69,-305.164 1348.04,-310.996 1343.29,-309.44 1343.29,-309.44 1343.29,-309.44 1348.04,-310.996 1341.89,-313.717 1352.79,-312.552 1352.79,-312.552"/>
</g>
<!-- Moment&#45;&gt;ActsAsTaggableOn::Tagging -->
<g id="edge114" class="edge"><title>Moment&#45;&gt;ActsAsTaggableOn::Tagging</title>
<path fill="none" stroke="#d5ce77" d="M1956.99,-369.159C1966.51,-363.855 1976.15,-357.437 1984,-350 2032.54,-304.038 2044.75,-286.313 2063,-222 2079.3,-164.547 2077.36,-127.043 2029,-92 1985.6,-60.5534 1599.61,-84.1973 1547,-74 1523.81,-69.506 1520.15,-60.6716 1497,-56 1395.85,-35.5909 1122.06,-26.0005 947.811,-21.841"/>
<ellipse fill="none" stroke="#d5ce77" cx="1953.29" cy="-371.121" rx="4.00002" ry="4.00002"/>
<polygon fill="#d5ce77" stroke="#d5ce77" points="947.776,-21.8402 937.884,-17.1061 942.777,-21.7225 937.778,-21.6048 937.778,-21.6048 937.778,-21.6048 942.777,-21.7225 937.672,-26.1036 947.776,-21.8402 947.776,-21.8402"/>
<text text-anchor="middle" x="2101.5" y="-199.4" font-family="Times Roman,serif" font-size="14.00">taggings</text>
</g>
<!-- Moment&#45;&gt;ActsAsTaggableOn::Tagging -->
<g id="edge118" class="edge"><title>Moment&#45;&gt;ActsAsTaggableOn::Tagging</title>
<path fill="none" stroke="#5a9f6d" d="M1920.52,-360.12C1929.1,-311.578 1948.8,-211.749 1970,-184 1979.67,-171.34 1993.05,-179.807 2001,-166 2010.22,-149.976 2017.44,-112.329 1996,-92 1975.87,-72.9112 1524.4,-78.3422 1497,-74 1468.24,-69.4417 1462.71,-60.8712 1434,-56 1343.55,-40.6528 1103.93,-29.7103 945.203,-23.8754"/>
<ellipse fill="none" stroke="#5a9f6d" cx="1919.78" cy="-364.342" rx="4.00001" ry="4.00001"/>
<polygon fill="#5a9f6d" stroke="#5a9f6d" points="944.861,-23.863 935.032,-19.0015 939.865,-23.6807 934.868,-23.4985 934.868,-23.4985 934.868,-23.4985 939.865,-23.6807 934.704,-27.9955 944.861,-23.863 944.861,-23.863"/>
<text text-anchor="middle" x="2014.5" y="-199.4" font-family="Times Roman,serif" font-size="14.00">tag_taggings</text>
</g>
<!-- Moment&#45;&gt;ActsAsTaggableOn::Tag -->
<g id="edge116" class="edge"><title>Moment&#45;&gt;ActsAsTaggableOn::Tag</title>
<path fill="none" stroke="#3d71c7" d="M1976.89,-383.163C2035.84,-378.415 2120.13,-368.575 2147,-350 2216.92,-301.658 2183.3,-245.479 2242,-184 2272.91,-151.63 2305.45,-169.226 2327,-130 2343.79,-99.448 2330.87,-73.9677 2301,-56 2276.79,-41.4373 2216.01,-32.3806 2158.56,-26.8757"/>
<polygon fill="#3d71c7" stroke="#3d71c7" points="1976.53,-383.191 1966.21,-379.478 1971.54,-383.578 1966.56,-383.964 1966.56,-383.964 1966.56,-383.964 1971.54,-383.578 1966.91,-388.451 1976.53,-383.191 1976.53,-383.191"/>
<polygon fill="#3d71c7" stroke="#3d71c7" points="2158.21,-26.8436 2148.67,-21.4413 2153.23,-26.3829 2148.25,-25.9222 2148.25,-25.9222 2148.25,-25.9222 2153.23,-26.3829 2147.84,-30.403 2158.21,-26.8436 2158.21,-26.8436"/>
<text text-anchor="middle" x="2276.5" y="-199.4" font-family="Times Roman,serif" font-size="14.00">base_tags</text>
</g>
<!-- Moment&#45;&gt;ActsAsTaggableOn::Tag -->
<g id="edge120" class="edge"><title>Moment&#45;&gt;ActsAsTaggableOn::Tag</title>
<path fill="none" stroke="#97126c" d="M1976.06,-382.443C2040.56,-376.827 2138.32,-366.017 2172,-350 2284.33,-296.582 2323.1,-252.445 2345,-130 2350.98,-96.5748 2353.92,-75.3297 2326,-56 2311.4,-45.8909 2226.56,-35.8508 2152.06,-28.7855"/>
<polygon fill="#97126c" stroke="#97126c" points="1975.97,-382.45 1965.63,-378.816 1970.99,-382.875 1966.01,-383.3 1966.01,-383.3 1966.01,-383.3 1970.99,-382.875 1966.39,-387.783 1975.97,-382.45 1975.97,-382.45"/>
<polygon fill="#97126c" stroke="#97126c" points="2152.06,-28.7848 2142.52,-23.3717 2147.08,-28.3184 2142.1,-27.8521 2142.1,-27.8521 2142.1,-27.8521 2147.08,-28.3184 2141.68,-32.3324 2152.06,-28.7848 2152.06,-28.7848"/>
<text text-anchor="middle" x="2348" y="-199.4" font-family="Times Roman,serif" font-size="14.00">tags</text>
</g>
<!-- Ticket&#45;&gt;User -->
<g id="edge128" class="edge"><title>Ticket&#45;&gt;User</title>
<path fill="none" stroke="#844c45" d="M2528.28,-403.909C2516.06,-409.754 2502.7,-416.687 2491,-424 2479.99,-430.879 2480.1,-437.293 2468,-442 2428.68,-457.299 2149.31,-471.81 2039.33,-476.994"/>
<polygon fill="#844c45" stroke="#844c45" points="2528.3,-403.901 2539.26,-403.739 2532.83,-401.782 2537.36,-399.663 2537.36,-399.663 2537.36,-399.663 2532.83,-401.782 2535.45,-395.587 2528.3,-403.901 2528.3,-403.901"/>
<polygon fill="#844c45" stroke="#844c45" points="2039.22,-476.999 2029.02,-472.971 2034.22,-477.233 2029.23,-477.466 2029.23,-477.466 2029.23,-477.466 2034.22,-477.233 2029.44,-481.961 2039.22,-476.999 2039.22,-476.999"/>
<text text-anchor="middle" x="2518.5" y="-429.4" font-family="Times Roman,serif" font-size="14.00">sent_by</text>
</g>
<!-- Ticket&#45;&gt;User -->
<g id="edge130" class="edge"><title>Ticket&#45;&gt;User</title>
<path fill="none" stroke="#57041f" d="M2562.64,-415.389C2559.64,-425.37 2554.57,-435.666 2546,-442 2525.73,-456.984 2166.8,-472.323 2039.4,-477.319"/>
<polygon fill="#57041f" stroke="#57041f" points="2562.64,-415.388 2569.38,-406.736 2563.83,-410.53 2565.01,-405.672 2565.01,-405.672 2565.01,-405.672 2563.83,-410.53 2560.64,-404.607 2562.64,-415.388 2562.64,-415.388"/>
<polygon fill="#57041f" stroke="#57041f" points="2039.21,-477.326 2029.05,-473.219 2034.22,-477.52 2029.22,-477.715 2029.22,-477.715 2029.22,-477.715 2034.22,-477.52 2029.4,-482.212 2039.21,-477.326 2039.21,-477.326"/>
<text text-anchor="middle" x="2586" y="-429.4" font-family="Times Roman,serif" font-size="14.00">sent_to</text>
</g>
<!-- Ticket&#45;&gt;TicketOwner -->
<g id="edge126" class="edge"><title>Ticket&#45;&gt;TicketOwner</title>
<path fill="none" stroke="#647e57" d="M2552.14,-361.675C2544.92,-349.387 2536.25,-334.613 2528.91,-322.099"/>
<ellipse fill="none" stroke="#647e57" cx="2554.31" cy="-365.374" rx="4.00002" ry="4.00002"/>
<polygon fill="#647e57" stroke="#647e57" points="2528.89,-322.078 2527.71,-311.175 2526.36,-317.765 2523.83,-313.453 2523.83,-313.453 2523.83,-313.453 2526.36,-317.765 2519.95,-315.731 2528.89,-322.078 2528.89,-322.078"/>
</g>
<!-- Ticket&#45;&gt;TicketUpdate -->
<g id="edge124" class="edge"><title>Ticket&#45;&gt;TicketUpdate</title>
<path fill="none" stroke="#d005f3" d="M2599.03,-367.989C2623.82,-353.272 2658.23,-332.851 2684.34,-317.351"/>
<ellipse fill="none" stroke="#d005f3" cx="2595.34" cy="-370.177" rx="4.00002" ry="4.00002"/>
<polygon fill="#d005f3" stroke="#d005f3" points="2684.61,-317.196 2695.5,-315.961 2688.91,-314.643 2693.2,-312.091 2693.2,-312.091 2693.2,-312.091 2688.91,-314.643 2690.91,-308.222 2684.61,-317.196 2684.61,-317.196"/>
</g>
<!-- Page -->
<g id="node20" class="node"><title>Page</title>
<ellipse fill="none" stroke="black" cx="1446" cy="-203" rx="34.8574" ry="18.3848"/>
<text text-anchor="middle" x="1446" y="-199.4" font-family="Times Roman,serif" font-size="14.00">Page</text>
</g>
<!-- Page&#45;&gt;User -->
<g id="edge150" class="edge"><title>Page&#45;&gt;User</title>
<path fill="none" stroke="#26e94f" d="M1480.44,-220.317C1579.17,-269.947 1862.33,-412.304 1960.78,-461.795"/>
<polygon fill="#26e94f" stroke="#26e94f" points="1480.41,-220.301 1473.5,-211.789 1475.95,-218.055 1471.48,-215.809 1471.48,-215.809 1471.48,-215.809 1475.95,-218.055 1469.46,-219.83 1480.41,-220.301 1480.41,-220.301"/>
<polygon fill="#26e94f" stroke="#26e94f" points="1961.05,-461.932 1967.96,-470.444 1965.52,-464.178 1969.98,-466.424 1969.98,-466.424 1969.98,-466.424 1965.52,-464.178 1972.01,-462.403 1961.05,-461.932 1961.05,-461.932"/>
<text text-anchor="middle" x="1776.5" y="-337.4" font-family="Times Roman,serif" font-size="14.00">contributors</text>
</g>
<!-- Page&#45;&gt;Contribution -->
<g id="edge148" class="edge"><title>Page&#45;&gt;Contribution</title>
<path fill="none" stroke="#056851" d="M1489.33,-201.397C1551.73,-198.332 1670.12,-189.677 1768,-166 1802.89,-157.561 1840.78,-143.12 1869.22,-131.154"/>
<ellipse fill="none" stroke="#056851" cx="1485.27" cy="-201.589" rx="4" ry="4"/>
<polygon fill="#056851" stroke="#056851" points="1869.28,-131.126 1880.24,-131.342 1873.88,-129.164 1878.48,-127.202 1878.48,-127.202 1878.48,-127.202 1873.88,-129.164 1876.71,-123.063 1869.28,-131.126 1869.28,-131.126"/>
</g>
<!-- Page&#45;&gt;Library -->
<g id="edge146" class="edge"><title>Page&#45;&gt;Library</title>
<path fill="none" stroke="#b276f1" d="M1412.58,-184.566C1387.61,-171.789 1352.2,-155.735 1319,-148 1160.39,-111.043 1113.29,-158.822 953,-130 947.823,-129.069 942.471,-127.816 937.194,-126.396"/>
<polygon fill="#b276f1" stroke="#b276f1" points="1412.75,-184.653 1419.53,-193.268 1417.18,-186.965 1421.61,-189.278 1421.61,-189.278 1421.61,-189.278 1417.18,-186.965 1423.69,-185.288 1412.75,-184.653 1412.75,-184.653"/>
<polygon fill="#b276f1" stroke="#b276f1" points="936.805,-126.283 928.455,-119.176 932.003,-124.891 927.201,-123.498 927.201,-123.498 927.201,-123.498 932.003,-124.891 925.948,-127.82 936.805,-126.283 936.805,-126.283"/>
</g>
<!-- Page&#45;&gt;Page -->
<g id="edge132" class="edge"><title>Page&#45;&gt;Page</title>
<path fill="none" stroke="#7f37ed" d="M1485.03,-211.325C1493.15,-210.452 1499,-207.677 1499,-203 1499,-198.8 1494.29,-196.134 1487.44,-195.002"/>
<ellipse fill="none" stroke="#7f37ed" cx="1481.03" cy="-211.458" rx="4" ry="4"/>
<polygon fill="#7f37ed" stroke="#7f37ed" points="1487.01,-194.977 1477.29,-189.916 1482.02,-194.693 1477.03,-194.409 1477.03,-194.409 1477.03,-194.409 1482.02,-194.693 1476.77,-198.901 1487.01,-194.977 1487.01,-194.977"/>
<text text-anchor="middle" x="1526.5" y="-199.4" font-family="Times Roman,serif" font-size="14.00">children</text>
</g>
<!-- Page&#45;&gt;Stack -->
<g id="edge144" class="edge"><title>Page&#45;&gt;Stack</title>
<path fill="none" stroke="#150fee" d="M1420.74,-182.064C1404.26,-169.718 1381.66,-155.152 1359,-148 1278.8,-122.693 1056.66,-166.703 981,-130 960.874,-120.237 967.994,-102.03 948,-92 899.799,-67.8195 759.701,-78.9258 706,-74 538.217,-58.6099 339.557,-35.4842 250.005,-24.796"/>
<ellipse fill="none" stroke="#150fee" cx="1424.24" cy="-184.753" rx="4.00002" ry="4.00002"/>
<polygon fill="#150fee" stroke="#150fee" points="249.819,-24.7739 240.424,-19.1181 244.855,-24.1801 239.89,-23.5862 239.89,-23.5862 239.89,-23.5862 244.855,-24.1801 239.356,-28.0544 249.819,-24.7739 249.819,-24.7739"/>
</g>
<!-- Page&#45;&gt;Photo -->
<g id="edge142" class="edge"><title>Page&#45;&gt;Photo</title>
<path fill="none" stroke="#e50e96" d="M1422.13,-224.322C1402.26,-239.544 1373.92,-259.886 1351.75,-274.838"/>
<ellipse fill="none" stroke="#e50e96" cx="1425.37" cy="-221.82" rx="4.00002" ry="4.00002"/>
<polygon fill="#e50e96" stroke="#e50e96" points="1351.69,-274.876 1340.87,-276.678 1347.53,-277.649 1343.37,-280.422 1343.37,-280.422 1343.37,-280.422 1347.53,-277.649 1345.87,-284.167 1351.69,-274.876 1351.69,-274.876"/>
</g>
<!-- Page&#45;&gt;ActsAsTaggableOn::Tagging -->
<g id="edge134" class="edge"><title>Page&#45;&gt;ActsAsTaggableOn::Tagging</title>
<path fill="none" stroke="#cd6658" d="M1437.76,-177.145C1433.48,-167.013 1427.36,-155.939 1419,-148 1404.27,-134.014 1388.18,-146.955 1377,-130 1367.7,-115.9 1370.76,-107.694 1377,-92 1381.07,-81.7746 1389.93,-84.2254 1394,-74 1396.96,-66.566 1399.48,-61.8286 1394,-56 1378.8,-39.835 1118.58,-28.7994 946.162,-23.2248"/>
<ellipse fill="none" stroke="#cd6658" cx="1439.23" cy="-180.915" rx="4.00001" ry="4.00001"/>
<polygon fill="#cd6658" stroke="#cd6658" points="945.961,-23.2185 936.11,-18.4005 940.963,-23.0583 935.966,-22.8982 935.966,-22.8982 935.966,-22.8982 940.963,-23.0583 935.822,-27.3959 945.961,-23.2185 945.961,-23.2185"/>
<text text-anchor="middle" x="1406.5" y="-107.4" font-family="Times Roman,serif" font-size="14.00">taggings</text>
</g>
<!-- Page&#45;&gt;ActsAsTaggableOn::Tagging -->
<g id="edge138" class="edge"><title>Page&#45;&gt;ActsAsTaggableOn::Tagging</title>
<path fill="none" stroke="#618901" d="M1449.46,-176.219C1452.37,-140.302 1450.82,-78.443 1410,-56 1370.59,-34.3311 1117.51,-25.1642 948.526,-21.425"/>
<ellipse fill="none" stroke="#618901" cx="1449.07" cy="-180.342" rx="4" ry="4"/>
<polygon fill="#618901" stroke="#618901" points="948.275,-21.4196 938.375,-16.7036 943.276,-21.3111 938.277,-21.2025 938.277,-21.2025 938.277,-21.2025 943.276,-21.3111 938.18,-25.7015 948.275,-21.4196 948.275,-21.4196"/>
<text text-anchor="middle" x="1494.5" y="-107.4" font-family="Times Roman,serif" font-size="14.00">tag_taggings</text>
</g>
<!-- Page&#45;&gt;ActsAsTaggableOn::Tag -->
<g id="edge136" class="edge"><title>Page&#45;&gt;ActsAsTaggableOn::Tag</title>
<path fill="none" stroke="#3a492e" d="M1490.78,-197.956C1547.53,-190.086 1646.98,-171.275 1722,-130 1743.77,-118.023 1741.26,-104.026 1763,-92 1815.97,-62.6962 1881.36,-44.6417 1934.63,-33.8196"/>
<polygon fill="#3a492e" stroke="#3a492e" points="1490.61,-197.979 1480.1,-194.84 1485.65,-198.64 1480.7,-199.301 1480.7,-199.301 1480.7,-199.301 1485.65,-198.64 1481.29,-203.761 1490.61,-197.979 1490.61,-197.979"/>
<polygon fill="#3a492e" stroke="#3a492e" points="1934.96,-33.754 1945.65,-36.2309 1939.87,-32.7851 1944.77,-31.8162 1944.77,-31.8162 1944.77,-31.8162 1939.87,-32.7851 1943.9,-27.4015 1934.96,-33.754 1934.96,-33.754"/>
<text text-anchor="middle" x="1797.5" y="-107.4" font-family="Times Roman,serif" font-size="14.00">base_tags</text>
</g>
<!-- Page&#45;&gt;ActsAsTaggableOn::Tag -->
<g id="edge140" class="edge"><title>Page&#45;&gt;ActsAsTaggableOn::Tag</title>
<path fill="none" stroke="#1aaa0f" d="M1491.27,-201.282C1636.85,-195.665 2087.31,-177.546 2152,-166 2205.14,-156.514 2230.91,-169.223 2268,-130 2291,-105.679 2303.85,-81.3547 2282,-56 2272.86,-45.3993 2210.33,-36.1126 2150.35,-29.4946"/>
<polygon fill="#1aaa0f" stroke="#1aaa0f" points="1490.91,-201.295 1480.75,-197.183 1485.92,-201.488 1480.92,-201.68 1480.92,-201.68 1480.92,-201.68 1485.92,-201.488 1481.09,-206.176 1490.91,-201.295 1490.91,-201.295"/>
<polygon fill="#1aaa0f" stroke="#1aaa0f" points="2150.31,-29.4901 2140.85,-23.9405 2145.34,-28.9522 2140.37,-28.4143 2140.37,-28.4143 2140.37,-28.4143 2145.34,-28.9522 2139.88,-32.8882 2150.31,-29.4901 2150.31,-29.4901"/>
<text text-anchor="middle" x="2308" y="-107.4" font-family="Times Roman,serif" font-size="14.00">tags</text>
</g>
<!-- Scope -->
<g id="node21" class="node"><title>Scope</title>
<ellipse fill="none" stroke="black" cx="2958" cy="-203" rx="39.8075" ry="18.3848"/>
<text text-anchor="middle" x="2958" y="-199.4" font-family="Times Roman,serif" font-size="14.00">Scope</text>
</g>
<!-- Scope&#45;&gt;Contribution -->
<g id="edge154" class="edge"><title>Scope&#45;&gt;Contribution</title>
<path fill="none" stroke="#583f11" d="M2921.2,-187.392C2917.14,-186.071 2913.01,-184.899 2909,-184 2578.13,-109.881 2486.1,-155.721 2148,-130 2096.52,-126.084 2038.69,-121.391 1993.41,-117.649"/>
<ellipse fill="none" stroke="#583f11" cx="2925.13" cy="-188.764" rx="4.00001" ry="4.00001"/>
<polygon fill="#583f11" stroke="#583f11" points="1993.32,-117.642 1983.73,-112.333 1988.34,-117.23 1983.35,-116.818 1983.35,-116.818 1983.35,-116.818 1988.34,-117.23 1982.98,-121.302 1993.32,-117.642 1993.32,-117.642"/>
</g>
<!-- Scope&#45;&gt;Import -->
<g id="edge156" class="edge"><title>Scope&#45;&gt;Import</title>
<path fill="none" stroke="#98fa8a" d="M2938.29,-178.821C2927.67,-165.792 2914.57,-149.724 2903.79,-136.499"/>
<ellipse fill="none" stroke="#98fa8a" cx="2941.01" cy="-182.161" rx="4.00002" ry="4.00002"/>
<polygon fill="#98fa8a" stroke="#98fa8a" points="2903.74,-136.435 2900.9,-125.841 2900.58,-132.559 2897.42,-128.684 2897.42,-128.684 2897.42,-128.684 2900.58,-132.559 2893.93,-131.527 2903.74,-136.435 2903.74,-136.435"/>
</g>
<!-- Permission -->
<g id="node115" class="node"><title>Permission</title>
<ellipse fill="none" stroke="black" cx="3008" cy="-111" rx="63.1385" ry="18.3848"/>
<text text-anchor="middle" x="3008" y="-107.4" font-family="Times Roman,serif" font-size="14.00">Permission</text>
</g>
<!-- Scope&#45;&gt;Permission -->
<g id="edge152" class="edge"><title>Scope&#45;&gt;Permission</title>
<path fill="none" stroke="#dc02c1" d="M2971.76,-177.675C2978.38,-165.506 2986.32,-150.9 2993.07,-138.464"/>
<ellipse fill="none" stroke="#dc02c1" cx="2969.79" cy="-181.309" rx="4.00002" ry="4.00002"/>
<polygon fill="#dc02c1" stroke="#dc02c1" points="2993.2,-138.24 3001.92,-131.602 2995.58,-133.847 2997.97,-129.453 2997.97,-129.453 2997.97,-129.453 2995.58,-133.847 2994.02,-127.305 2993.2,-138.24 2993.2,-138.24"/>
</g>
<!-- Ability -->
<g id="node22" class="node"><title>Ability</title>
<polygon fill="none" stroke="black" points="3450,-601 3390,-601 3390,-565 3450,-565 3450,-601"/>
<text text-anchor="middle" x="3420" y="-579.4" font-family="Times Roman,serif" font-size="14.00">Ability</text>
</g>
<!-- Stage -->
<g id="node23" class="node"><title>Stage</title>
<ellipse fill="none" stroke="black" cx="2754" cy="-583" rx="39.0967" ry="18.3848"/>
<text text-anchor="middle" x="2754" y="-579.4" font-family="Times Roman,serif" font-size="14.00">Stage</text>
</g>
<!-- Stage&#45;&gt;User -->
<g id="edge160" class="edge"><title>Stage&#45;&gt;User</title>
<path fill="none" stroke="#9252c0" d="M2734.32,-557.56C2726.46,-549.239 2716.73,-540.886 2706,-536 2645.46,-508.424 2185.65,-486.983 2039.47,-480.806"/>
<polygon fill="#9252c0" stroke="#9252c0" points="2734.36,-557.603 2737.62,-568.075 2737.67,-561.348 2740.99,-565.093 2740.99,-565.093 2740.99,-565.093 2737.67,-561.348 2744.36,-562.112 2734.36,-557.603 2734.36,-557.603"/>
<polygon fill="#9252c0" stroke="#9252c0" points="2039.09,-480.79 2029.28,-475.875 2034.09,-480.58 2029.09,-480.371 2029.09,-480.371 2029.09,-480.371 2034.09,-480.58 2028.91,-484.867 2039.09,-480.79 2039.09,-480.79"/>
</g>
<!-- Stage&#45;&gt;Volunteer -->
<g id="edge158" class="edge"><title>Stage&#45;&gt;Volunteer</title>
<path fill="none" stroke="#f67f87" d="M2796.05,-571.269C2861.79,-550.397 2986.77,-499.917 3039,-406 3055.85,-375.709 3028.37,-341.348 3004.13,-318.986"/>
<ellipse fill="none" stroke="#f67f87" cx="2792.16" cy="-572.481" rx="4.00001" ry="4.00001"/>
<polygon fill="#f67f87" stroke="#f67f87" points="3003.92,-318.798 2999.42,-308.799 3000.17,-315.483 2996.43,-312.167 2996.43,-312.167 2996.43,-312.167 3000.17,-315.483 2993.45,-315.536 3003.92,-318.798 3003.92,-318.798"/>
</g>
<!-- Document&#45;&gt;Role -->
<g id="edge174" class="edge"><title>Document&#45;&gt;Role</title>
<path fill="none" stroke="#bc4fa6" d="M1153.38,-192.766C1130.28,-189.463 1104.03,-186.112 1080,-184 873.088,-165.813 818.762,-194.374 613,-166 579.041,-161.317 571.368,-155.854 538,-148 503.369,-139.848 493.89,-140.828 460,-130 456.415,-128.854 452.717,-127.549 449.05,-126.17"/>
<polygon fill="#bc4fa6" stroke="#bc4fa6" points="1153.51,-192.785 1162.76,-198.678 1158.46,-193.505 1163.41,-194.225 1163.41,-194.225 1163.41,-194.225 1158.46,-193.505 1164.06,-189.772 1153.51,-192.785 1153.51,-192.785"/>
<polygon fill="#bc4fa6" stroke="#bc4fa6" points="448.815,-126.078 441.16,-118.225 444.163,-124.245 439.511,-122.412 439.511,-122.412 439.511,-122.412 444.163,-124.245 437.861,-126.599 448.815,-126.078 448.815,-126.078"/>
</g>
<!-- Document&#45;&gt;Library -->
<g id="edge172" class="edge"><title>Document&#45;&gt;Library</title>
<path fill="none" stroke="#19fd2c" d="M1161.73,-188.161C1107.96,-173.827 1024.72,-151.227 953,-130 948.397,-128.638 943.606,-127.183 938.828,-125.708"/>
<polygon fill="#19fd2c" stroke="#19fd2c" points="1161.75,-188.167 1170.26,-195.088 1166.58,-189.453 1171.41,-190.739 1171.41,-190.739 1171.41,-190.739 1166.58,-189.453 1172.57,-186.391 1161.75,-188.167 1161.75,-188.167"/>
<polygon fill="#19fd2c" stroke="#19fd2c" points="938.649,-125.653 930.442,-118.38 933.875,-124.164 929.102,-122.676 929.102,-122.676 929.102,-122.676 933.875,-124.164 927.762,-126.972 938.649,-125.653 938.649,-125.653"/>
</g>
<!-- Document&#45;&gt;Stack -->
<g id="edge170" class="edge"><title>Document&#45;&gt;Stack</title>
<path fill="none" stroke="#9da246" d="M1154.57,-193.481C1131.17,-190.177 1104.41,-186.642 1080,-184 956.364,-170.62 641.457,-167.852 523,-130 490.022,-119.462 487.841,-102.958 455,-92 398.417,-73.1197 379.292,-90.6074 322,-74 291.881,-65.2692 259.675,-50.158 236.219,-37.9817"/>
<ellipse fill="none" stroke="#9da246" cx="1158.73" cy="-194.074" rx="4.00001" ry="4.00001"/>
<polygon fill="#9da246" stroke="#9da246" points="236.21,-37.977 229.466,-29.3299 231.788,-35.6433 227.366,-33.3097 227.366,-33.3097 227.366,-33.3097 231.788,-35.6433 225.265,-37.2895 236.21,-37.977 236.21,-37.977"/>
</g>
<!-- Document&#45;&gt;ActsAsTaggableOn::Tagging -->
<g id="edge162" class="edge"><title>Document&#45;&gt;ActsAsTaggableOn::Tagging</title>
<path fill="none" stroke="#a83776" d="M1168.75,-186.472C1128.72,-172.607 1071.05,-151.645 1022,-130 1021.61,-129.828 913.369,-74.2125 913,-74 900.183,-66.6111 898.118,-62.8407 885,-56 874.468,-50.5075 862.932,-45.2409 851.738,-40.4905"/>
<ellipse fill="none" stroke="#a83776" cx="1172.74" cy="-187.845" rx="4.00001" ry="4.00001"/>
<polygon fill="#a83776" stroke="#a83776" points="851.679,-40.4661 844.172,-32.4726 847.062,-38.547 842.445,-36.6279 842.445,-36.6279 842.445,-36.6279 847.062,-38.547 840.717,-40.7833 851.679,-40.4661 851.679,-40.4661"/>
<text text-anchor="middle" x="1051.5" y="-107.4" font-family="Times Roman,serif" font-size="14.00">taggings</text>
</g>
<!-- Document&#45;&gt;ActsAsTaggableOn::Tagging -->
<g id="edge166" class="edge"><title>Document&#45;&gt;ActsAsTaggableOn::Tagging</title>
<path fill="none" stroke="#76b125" d="M1154.12,-193.683C1027.85,-175.183 757.681,-135.147 749,-130 745.626,-128 707.261,-77.7141 706,-74 703.427,-66.425 701.56,-62.6546 706,-56 709.869,-50.2017 714.835,-45.3107 720.439,-41.1853"/>
<ellipse fill="none" stroke="#76b125" cx="1158.26" cy="-194.291" rx="4.00001" ry="4.00001"/>
<polygon fill="#76b125" stroke="#76b125" points="720.63,-41.0632 731.479,-39.4626 724.842,-38.3678 729.053,-35.6724 729.053,-35.6724 729.053,-35.6724 724.842,-38.3678 726.627,-31.8822 720.63,-41.0632 720.63,-41.0632"/>
<text text-anchor="middle" x="793.5" y="-107.4" font-family="Times Roman,serif" font-size="14.00">tag_taggings</text>
</g>
<!-- Document&#45;&gt;ActsAsTaggableOn::Tag -->
<g id="edge164" class="edge"><title>Document&#45;&gt;ActsAsTaggableOn::Tag</title>
<path fill="none" stroke="#0a0387" d="M1236.82,-176.639C1246.09,-165.797 1258.24,-154.318 1272,-148 1326.85,-122.815 1486.1,-150.114 1543,-130 1570.67,-120.22 1570.63,-104.888 1597,-92 1621.63,-79.9603 1631.12,-85.5215 1656,-74 1669.42,-67.7827 1670.04,-60.9103 1684,-56 1724.36,-41.7978 1825.32,-32.0609 1908.49,-26.1543"/>
<polygon fill="#0a0387" stroke="#0a0387" points="1236.59,-176.926 1226.81,-181.886 1233.45,-180.818 1230.31,-184.711 1230.31,-184.711 1230.31,-184.711 1233.45,-180.818 1233.82,-187.535 1236.59,-176.926 1236.59,-176.926"/>
<polygon fill="#0a0387" stroke="#0a0387" points="1908.56,-26.1493 1918.85,-29.942 1913.55,-25.8011 1918.54,-25.453 1918.54,-25.453 1918.54,-25.453 1913.55,-25.8011 1918.23,-20.9639 1908.56,-26.1493 1908.56,-26.1493"/>
<text text-anchor="middle" x="1631.5" y="-107.4" font-family="Times Roman,serif" font-size="14.00">base_tags</text>
</g>
<!-- Document&#45;&gt;ActsAsTaggableOn::Tag -->
<g id="edge168" class="edge"><title>Document&#45;&gt;ActsAsTaggableOn::Tag</title>
<path fill="none" stroke="#4d77b6" d="M1285.9,-195.175C1403.42,-181.158 1635.19,-151.248 1666,-130 1682.06,-118.92 1672.84,-104.288 1688,-92 1727.96,-59.6089 1747.98,-68.0226 1798,-56 1840,-45.9037 1886.89,-37.8979 1927.74,-31.953"/>
<polygon fill="#4d77b6" stroke="#4d77b6" points="1285.86,-195.18 1275.39,-191.891 1280.89,-195.77 1275.92,-196.36 1275.92,-196.36 1275.92,-196.36 1280.89,-195.77 1276.46,-200.828 1285.86,-195.18 1285.86,-195.18"/>
<polygon fill="#4d77b6" stroke="#4d77b6" points="1927.82,-31.9422 1938.36,-34.979 1932.77,-31.2333 1937.72,-30.5245 1937.72,-30.5245 1937.72,-30.5245 1932.77,-31.2333 1937.08,-26.0699 1927.82,-31.9422 1927.82,-31.9422"/>
<text text-anchor="middle" x="1703" y="-107.4" font-family="Times Roman,serif" font-size="14.00">tags</text>
</g>
<!-- Regiontype -->
<g id="node25" class="node"><title>Regiontype</title>
<ellipse fill="none" stroke="black" cx="3130" cy="-583" rx="65.9683" ry="18.3848"/>
<text text-anchor="middle" x="3130" y="-579.4" font-family="Times Roman,serif" font-size="14.00">Regiontype</text>
</g>
<!-- Region -->
<g id="node33" class="node"><title>Region</title>
<ellipse fill="none" stroke="black" cx="3130" cy="-479" rx="44.0472" ry="18.3848"/>
<text text-anchor="middle" x="3130" y="-475.4" font-family="Times Roman,serif" font-size="14.00">Region</text>
</g>
<!-- Regiontype&#45;&gt;Region -->
<g id="edge176" class="edge"><title>Regiontype&#45;&gt;Region</title>
<path fill="none" stroke="#004b46" d="M3130,-555.926C3130,-541.224 3130,-523.041 3130,-508.044"/>
<ellipse fill="none" stroke="#004b46" cx="3130" cy="-560.407" rx="4" ry="4"/>
<polygon fill="#004b46" stroke="#004b46" points="3130,-507.783 3134.5,-497.783 3130,-502.783 3130,-497.783 3130,-497.783 3130,-497.783 3130,-502.783 3125.5,-497.783 3130,-507.783 3130,-507.783"/>
</g>
<!-- Site&#45;&gt;Staff -->
<g id="edge180" class="edge"><title>Site&#45;&gt;Staff</title>
<path fill="none" stroke="#a8ad2a" d="M2882.59,-361.626C2876.59,-349.371 2869.4,-334.653 2863.29,-322.17"/>
<ellipse fill="none" stroke="#a8ad2a" cx="2884.35" cy="-365.231" rx="4.00002" ry="4.00002"/>
<polygon fill="#a8ad2a" stroke="#a8ad2a" points="2863.27,-322.121 2862.91,-311.161 2861.07,-317.63 2858.87,-313.138 2858.87,-313.138 2858.87,-313.138 2861.07,-317.63 2854.83,-315.116 2863.27,-322.121 2863.27,-322.121"/>
</g>
<!-- Site&#45;&gt;Volunteer -->
<g id="edge178" class="edge"><title>Site&#45;&gt;Volunteer</title>
<path fill="none" stroke="#7a519d" d="M2915,-363.705C2926.19,-350.677 2940.16,-334.408 2951.7,-320.971"/>
<ellipse fill="none" stroke="#7a519d" cx="2912.1" cy="-367.091" rx="4.00002" ry="4.00002"/>
<polygon fill="#7a519d" stroke="#7a519d" points="2952.01,-320.612 2961.94,-315.957 2955.26,-316.819 2958.52,-313.025 2958.52,-313.025 2958.52,-313.025 2955.26,-316.819 2955.11,-310.094 2952.01,-320.612 2952.01,-320.612"/>
</g>
<!-- Photo&#45;&gt;User -->
<g id="edge196" class="edge"><title>Photo&#45;&gt;User</title>
<path fill="none" stroke="#e67eef" d="M1343.48,-316.857C1360.21,-331.276 1382.52,-350.639 1402,-368 1438.41,-400.44 1438.21,-422.733 1483,-442 1525.37,-460.226 1834.09,-473.172 1950.63,-477.457"/>
<ellipse fill="none" stroke="#e67eef" cx="1340.16" cy="-314.002" rx="4.00002" ry="4.00002"/>
<polygon fill="#e67eef" stroke="#e67eef" points="1950.97,-477.47 1960.8,-482.33 1955.97,-477.652 1960.96,-477.833 1960.96,-477.833 1960.96,-477.833 1955.97,-477.652 1961.13,-473.336 1950.97,-477.47 1950.97,-477.47"/>
</g>
<!-- Photo&#45;&gt;CaseStudy -->
<g id="edge192" class="edge"><title>Photo&#45;&gt;CaseStudy</title>
<path fill="none" stroke="#41356d" d="M1276.32,-282.63C1221.01,-266.217 1123.27,-237.21 1062.26,-219.104"/>
<ellipse fill="none" stroke="#41356d" cx="1280.4" cy="-283.841" rx="4.00001" ry="4.00001"/>
<polygon fill="#41356d" stroke="#41356d" points="1062.02,-219.031 1053.71,-211.871 1057.22,-217.608 1052.43,-216.185 1052.43,-216.185 1052.43,-216.185 1057.22,-217.608 1051.15,-220.499 1062.02,-219.031 1062.02,-219.031"/>
</g>
<!-- Photo&#45;&gt;Library -->
<g id="edge200" class="edge"><title>Photo&#45;&gt;Library</title>
<path fill="none" stroke="#f7d1ea" d="M1318.67,-265.999C1317.59,-240.601 1311.71,-204.621 1289,-184 1177.03,-82.3162 1100.16,-164.925 953,-130 948.012,-128.816 942.836,-127.428 937.71,-125.95"/>
<polygon fill="#f7d1ea" stroke="#f7d1ea" points="1318.67,-266.162 1314.38,-276.251 1318.78,-271.161 1318.88,-276.16 1318.88,-276.16 1318.88,-276.16 1318.78,-271.161 1323.38,-276.069 1318.67,-266.162 1318.67,-266.162"/>
<polygon fill="#f7d1ea" stroke="#f7d1ea" points="937.552,-125.903 929.268,-118.718 932.763,-124.465 927.974,-123.028 927.974,-123.028 927.974,-123.028 932.763,-124.465 926.681,-127.338 937.552,-125.903 937.552,-125.903"/>
</g>
<!-- Photo&#45;&gt;Moment -->
<g id="edge194" class="edge"><title>Photo&#45;&gt;Moment</title>
<path fill="none" stroke="#7b7def" d="M1358.67,-308.589C1364.46,-310.64 1370.35,-312.551 1376,-314 1422.25,-325.861 1727.21,-363.26 1857.39,-379.43"/>
<ellipse fill="none" stroke="#7b7def" cx="1354.63" cy="-307.109" rx="4.00001" ry="4.00001"/>
<polygon fill="#7b7def" stroke="#7b7def" points="1857.65,-379.462 1867.02,-385.161 1862.61,-380.079 1867.57,-380.696 1867.57,-380.696 1867.57,-380.696 1862.61,-380.079 1868.13,-376.23 1857.65,-379.462 1857.65,-379.462"/>
</g>
<!-- Photo&#45;&gt;Page -->
<g id="edge190" class="edge"><title>Photo&#45;&gt;Page</title>
<path fill="none" stroke="#2aa992" d="M1342.27,-273.371C1362.44,-257.939 1391.14,-237.363 1413.31,-222.449"/>
<ellipse fill="none" stroke="#2aa992" cx="1339" cy="-275.893" rx="4.00002" ry="4.00002"/>
<polygon fill="#2aa992" stroke="#2aa992" points="1413.43,-222.368 1424.25,-220.582 1417.6,-219.601 1421.76,-216.834 1421.76,-216.834 1421.76,-216.834 1417.6,-219.601 1419.27,-213.086 1413.43,-222.368 1413.43,-222.368"/>
</g>
<!-- Photo&#45;&gt;Stack -->
<g id="edge198" class="edge"><title>Photo&#45;&gt;Stack</title>
<path fill="none" stroke="#e717fe" d="M1269.73,-294.74C1126.13,-293.631 703.266,-287.849 569,-258 429.883,-227.073 385.635,-219.834 275,-130 247.179,-107.41 226.238,-71.3525 214.074,-46.4965"/>
<ellipse fill="none" stroke="#e717fe" cx="1273.98" cy="-294.771" rx="4" ry="4"/>
<polygon fill="#e717fe" stroke="#e717fe" points="213.975,-46.2873 213.766,-35.3234 211.837,-41.7677 209.699,-37.248 209.699,-37.248 209.699,-37.248 211.837,-41.7677 205.631,-39.1725 213.975,-46.2873 213.975,-46.2873"/>
</g>
<!-- Photo&#45;&gt;ActsAsTaggableOn::Tagging -->
<g id="edge182" class="edge"><title>Photo&#45;&gt;ActsAsTaggableOn::Tagging</title>
<path fill="none" stroke="#89fe8c" d="M1269.78,-294.004C1120.04,-290.7 669.338,-279.098 607,-258 551.885,-239.346 553.288,-204.939 499,-184 443.757,-162.693 418.044,-196.005 367,-166 349.758,-155.865 346.325,-148.974 340,-130 334.659,-113.978 330.559,-106.003 340,-92 363.853,-56.621 387.58,-66.2487 429,-56 471.415,-45.505 573.052,-35.6586 658.484,-28.7658"/>
<ellipse fill="none" stroke="#89fe8c" cx="1273.95" cy="-294.095" rx="4" ry="4"/>
<polygon fill="#89fe8c" stroke="#89fe8c" points="658.582,-28.758 668.909,-32.4468 663.567,-28.3595 668.551,-27.9611 668.551,-27.9611 668.551,-27.9611 663.567,-28.3595 668.192,-23.4754 658.582,-28.758 658.582,-28.758"/>
<text text-anchor="middle" x="396.5" y="-153.4" font-family="Times Roman,serif" font-size="14.00">taggings</text>
</g>
<!-- Photo&#45;&gt;ActsAsTaggableOn::Tagging -->
<g id="edge186" class="edge"><title>Photo&#45;&gt;ActsAsTaggableOn::Tagging</title>
<path fill="none" stroke="#25ec2b" d="M1271.31,-288.488C1092.99,-263.569 463.914,-175.196 445,-166 434.539,-160.914 435.96,-154.009 426,-148 404.7,-135.148 387.489,-150.222 373,-130 363.164,-116.271 362.415,-105.16 373,-92 391.833,-68.5841 555.169,-45.6308 672.991,-31.8938"/>
<ellipse fill="none" stroke="#25ec2b" cx="1275.5" cy="-289.073" rx="4.00001" ry="4.00001"/>
<polygon fill="#25ec2b" stroke="#25ec2b" points="673.238,-31.8653 683.689,-35.1866 678.205,-31.2908 683.172,-30.7164 683.172,-30.7164 683.172,-30.7164 678.205,-31.2908 682.655,-26.2462 673.238,-31.8653 673.238,-31.8653"/>
<text text-anchor="middle" x="489.5" y="-153.4" font-family="Times Roman,serif" font-size="14.00">tag_taggings</text>
</g>
<!-- Photo&#45;&gt;ActsAsTaggableOn::Tag -->
<g id="edge184" class="edge"><title>Photo&#45;&gt;ActsAsTaggableOn::Tag</title>
<path fill="none" stroke="#0d5df1" d="M1357.41,-279.165C1360.64,-278.039 1363.86,-276.968 1367,-276 1641.26,-191.466 1783.01,-322.347 1996,-130 2019.28,-108.976 2028.3,-73.0783 2031.8,-47.8097"/>
<polygon fill="#0d5df1" stroke="#0d5df1" points="1357.22,-279.236 1346.28,-278.435 1352.52,-280.949 1347.82,-282.662 1347.82,-282.662 1347.82,-282.662 1352.52,-280.949 1349.36,-286.89 1357.22,-279.236 1357.22,-279.236"/>
<polygon fill="#0d5df1" stroke="#0d5df1" points="2031.82,-47.6374 2037.45,-38.2294 2032.4,-42.6714 2032.98,-37.7054 2032.98,-37.7054 2032.98,-37.7054 2032.4,-42.6714 2028.51,-37.1815 2031.82,-47.6374 2031.82,-47.6374"/>
<text text-anchor="middle" x="2006.5" y="-153.4" font-family="Times Roman,serif" font-size="14.00">base_tags</text>
</g>
<!-- Photo&#45;&gt;ActsAsTaggableOn::Tag -->
<g id="edge188" class="edge"><title>Photo&#45;&gt;ActsAsTaggableOn::Tag</title>
<path fill="none" stroke="#e5ba0a" d="M1356.68,-278.8C1360.13,-277.722 1363.6,-276.764 1367,-276 1474.82,-251.756 1504.81,-266.426 1615,-258 1714.59,-250.385 1995.26,-295.397 2063,-222 2107.54,-173.74 2072.83,-89.6281 2049.96,-46.3892"/>
<polygon fill="#e5ba0a" stroke="#e5ba0a" points="1356.55,-278.843 1345.63,-277.835 1351.82,-280.467 1347.1,-282.091 1347.1,-282.091 1347.1,-282.091 1351.82,-280.467 1348.56,-286.347 1356.55,-278.843 1356.55,-278.843"/>
<polygon fill="#e5ba0a" stroke="#e5ba0a" points="2049.94,-46.3437 2049.1,-35.4093 2047.54,-41.9527 2045.15,-37.5617 2045.15,-37.5617 2045.15,-37.5617 2047.54,-41.9527 2041.2,-39.7141 2049.94,-46.3437 2049.94,-46.3437"/>
<text text-anchor="middle" x="2100" y="-153.4" font-family="Times Roman,serif" font-size="14.00">tags</text>
</g>
<!-- Language -->
<g id="node32" class="node"><title>Language</title>
<ellipse fill="none" stroke="black" cx="1435" cy="-295" rx="58.8978" ry="18.3848"/>
<text text-anchor="middle" x="1435" y="-291.4" font-family="Times Roman,serif" font-size="14.00">Language</text>
</g>
<!-- Language&#45;&gt;CaseStudy -->
<g id="edge204" class="edge"><title>Language&#45;&gt;CaseStudy</title>
<path fill="none" stroke="#e663fb" d="M1383.5,-280.191C1377.94,-278.719 1372.36,-277.293 1367,-276 1264.46,-251.282 1144.11,-227.954 1072.06,-214.588"/>
<ellipse fill="none" stroke="#e663fb" cx="1387.73" cy="-281.33" rx="4.00001" ry="4.00001"/>
<polygon fill="#e663fb" stroke="#e663fb" points="1071.62,-214.507 1062.61,-208.264 1066.71,-213.598 1061.79,-212.689 1061.79,-212.689 1061.79,-212.689 1066.71,-213.598 1060.97,-217.114 1071.62,-214.507 1071.62,-214.507"/>
</g>
<!-- Language&#45;&gt;Page -->
<g id="edge202" class="edge"><title>Language&#45;&gt;Page</title>
<path fill="none" stroke="#7da573" d="M1438.22,-268.029C1439.59,-256.599 1441.19,-243.267 1442.57,-231.66"/>
<ellipse fill="none" stroke="#7da573" cx="1437.7" cy="-272.411" rx="4.00001" ry="4.00001"/>
<polygon fill="#7da573" stroke="#7da573" points="1442.59,-231.519 1448.25,-222.124 1443.18,-226.555 1443.78,-221.59 1443.78,-221.59 1443.78,-221.59 1443.18,-226.555 1439.31,-221.056 1442.59,-231.519 1442.59,-231.519"/>
</g>
<!-- Language&#45;&gt;Document -->
<g id="edge206" class="edge"><title>Language&#45;&gt;Document</title>
<path fill="none" stroke="#9cb2df" d="M1392.08,-276.803C1354.76,-260.981 1300.88,-238.137 1262.97,-222.065"/>
<ellipse fill="none" stroke="#9cb2df" cx="1395.97" cy="-278.452" rx="4.00002" ry="4.00002"/>
<polygon fill="#9cb2df" stroke="#9cb2df" points="1262.9,-222.036 1255.45,-213.99 1258.3,-220.084 1253.69,-218.133 1253.69,-218.133 1253.69,-218.133 1258.3,-220.084 1251.94,-222.276 1262.9,-222.036 1262.9,-222.036"/>
</g>
<!-- Region&#45;&gt;Site -->
<g id="edge208" class="edge"><title>Region&#45;&gt;Site</title>
<path fill="none" stroke="#5ab042" d="M3088.18,-464.51C3048.42,-450.458 2987.11,-428.082 2935,-406 2932.79,-405.064 2930.52,-404.073 2928.25,-403.055"/>
<ellipse fill="none" stroke="#5ab042" cx="3092.06" cy="-465.877" rx="4.00001" ry="4.00001"/>
<polygon fill="#5ab042" stroke="#5ab042" points="2928.05,-402.964 2920.84,-394.7 2923.51,-400.876 2918.96,-398.789 2918.96,-398.789 2918.96,-398.789 2923.51,-400.876 2917.08,-402.878 2928.05,-402.964 2928.05,-402.964"/>
</g>
<!-- Feedback -->
<g id="node34" class="node"><title>Feedback</title>
<ellipse fill="none" stroke="black" cx="3524" cy="-583" rx="56.0679" ry="18.3848"/>
<text text-anchor="middle" x="3524" y="-579.4" font-family="Times Roman,serif" font-size="14.00">Feedback</text>
</g>
<!-- Sector -->
<g id="node35" class="node"><title>Sector</title>
<ellipse fill="none" stroke="black" cx="2987" cy="-387" rx="43.1335" ry="18.3848"/>
<text text-anchor="middle" x="2987" y="-383.4" font-family="Times Roman,serif" font-size="14.00">Sector</text>
</g>
<!-- Sector&#45;&gt;Volunteer -->
<g id="edge210" class="edge"><title>Sector&#45;&gt;Volunteer</title>
<path fill="none" stroke="#556b77" d="M2983.25,-360.447C2981.62,-348.958 2979.72,-335.485 2978.06,-323.76"/>
<ellipse fill="none" stroke="#556b77" cx="2983.81" cy="-364.422" rx="4.00001" ry="4.00001"/>
<polygon fill="#556b77" stroke="#556b77" points="2978.03,-323.492 2981.08,-312.96 2977.33,-318.541 2976.63,-313.59 2976.63,-313.59 2976.63,-313.59 2977.33,-318.541 2972.17,-314.22 2978.03,-323.492 2978.03,-323.492"/>
</g>
<!-- SiteConfig -->
<g id="node36" class="node"><title>SiteConfig</title>
<ellipse fill="none" stroke="black" cx="3659" cy="-583" rx="61.0181" ry="18.3848"/>
<text text-anchor="middle" x="3659" y="-579.4" font-family="Times Roman,serif" font-size="14.00">SiteConfig</text>
</g>
</g>
</svg>
